<mxfile host="app.diagrams.net" modified="2022-03-10T14:33:28.606Z" agent="5.0 (Windows NT 10.0; Win64; x64) AppleWebKit/537.36 (KHTML, like Gecko) Chrome/98.0.4758.102 Safari/537.36" etag="_jAGLnaNOgjmGaTp3zpJ" version="16.6.6" type="github">
  <diagram id="dCK1Wwuas6a5_fYGSHeJ" name="Page-1">
    <mxGraphModel dx="4330" dy="1122" grid="1" gridSize="10" guides="1" tooltips="1" connect="1" arrows="1" fold="1" page="1" pageScale="1" pageWidth="827" pageHeight="1169" math="0" shadow="0">
      <root>
        <mxCell id="0" />
        <mxCell id="1" parent="0" />
        <mxCell id="DC5LUboHaYD9eqo_H9xx-13" value="" style="rounded=1;whiteSpace=wrap;html=1;fontFamily=Verdana;fontSize=16;" vertex="1" parent="1">
          <mxGeometry x="100" y="165" width="120" height="120" as="geometry" />
        </mxCell>
        <mxCell id="DC5LUboHaYD9eqo_H9xx-7" value="" style="shape=image;verticalLabelPosition=bottom;labelBackgroundColor=default;verticalAlign=top;aspect=fixed;imageAspect=0;image=data:image/png,iVBORw0KGgoAAAANSUhEUgAAAQAAAACPCAYAAAAV4wXfAAAAAXNSR0IArs4c6QAAAARnQU1BAACxjwv8YQUAAAAJcEhZcwAADsQAAA7EAZUrDhsAAIjXSURBVHhe7Z0HnF1VtfDXvXPvnd77THrvDZIQIFTpgoqAlY4KiJ9Ynj4RsT0V9L2n/uwdeSpSLIiggHQSagjpPZNMJtN7L3fmfuu/zj0zd2pmJpOQmFnJnnPPOfvss8/ee9W99tqeT33q06H/vfvbcqC8RCZOmCANNQ2SmJooQFewS7w+r/1ubm2WuJg4+z0O4zAOxzY8++yzsnr1avH5fOErDtTV1UlHR4dkZGTYuefLd3wxtHdyptxz8VXS1lQt67bvk6aycknPTpHyyjpJTkuV5GiPVNa1SWtzrcSmpEldRbGccvq5snDBPCtkHMZhHN4eeO6552TlypUSGxsbviKyf/9++dvf/ibvfe97JS8vL3zVgW996265+eaPSWpqqp177vrSnaGvfu3rdhIJjTXlkpCaFT4bh3EYh39H8MSn5YWmzFqiYkG7dIVEoqK80tXZqaKD347i8YiEQtIlIf3pkZBm8ng90kXm8DWgU8+93KdQ/WtHj6oPHs3Tpfm1DL1h+XlWX8PTVvY4jMM4jDGAlkOgFmjb1tYunuyJM0NnX3KldLW3SGtru1TXNUpGZo60NFVKVX1QfN5OUfwVqIPPGyVxsTFSq3kyM1I1f6M0tXZItD8g2VkZUllRqojtlZA3oHgfkpbGFv0tEh3jl6SkJAmp7lFeWS05OTlSV1MrAb0egkiMwziMw1EFj/5raWkRT2be9NC1n/iMNFeUyMmrTpV1a56XAzVtcun5Z0morV46g13S1hWUrOQs2bl3u0yeOkW6gh6pra2S2ECicv2grNu2V+pbWuXcM08S6RApq66X+OgoVSFSpKG2Qd5a/4bEpeVIWlKi5OZkSmyUTzZt2iQbdhVKwAd1IY3DOIzD0YTW1lbx5E6eFVq84mxpbWuT9o5WiY2OFfH6pampUdIy0iUhKiT7KuokWsX+KJ9Pgp1diq5d4lVpoItSVMzwqwTgi+qUpuY2kwD0v80gZGdnKwFpkdr6ZlMHQqFOCQaDkpqcLg0N9eKPiR5H/XEYh7cBUAFalGl78qbODs1ZdKoifzuXVZdXJG1vF39AxfiwLu+L8ktDc620NDSant8XQuj5of7Xu7qURGj+vs9gDxionHEYh3E4etDZ2SmeaXOXhuYuPkUJQIch7IT8CTJj2iTZuGWH1NRUGueOigpI0cG9Ulq4R7wqvvcDqEQYn804qIp/SIIqCaimYTp+RIYBIKTvJcfg4NxFb/EgXgwIvd8RCmmZVEVT5JvdXF6skMOCUNjgOQygYPeFShA5DFZfy+L8NHDqOtB7yGmyVj+Ahjrte2gwYhwJSrSpAEbZ4ZYxDv9eYONz2pwloVmLV6morsq7AiJ6Q2OzJCXGK+JH2TWORQcLpXj/buXcijw2Q6AIrgOnUwctw8ereQIqNUAsOrQMvy/KBldTY314hgBpwmuDNsSgCyMoZccnJkoQAqQUKUoJDKoCg5LnAn7OeUNI73lUdWiwvFF6vUvVES8IhmoRihKfl1kJZzDHx8dbPWxegmv6MlQYPppKtKvK04IOpP9QW4JdQT2qWqOIwjNd+oyfb4pWNUXz806cKmxmRPPzTEdHUH/r87xDpSSfPmMzG/aSLpWcoszxAkrLO6MoR+sc5fPqe3jUqS/lx8cnSnt7mxatBDZc13YtX5tRJSb9Ts2DdKY/xRfw6Tt5l4pxzU1GZNr0e6iTR99JJtqW/kEwozpJyYnS1qptrG2FyobExvO0a7OWYe04DiccRKVm5HwlPWeicWEAAnDttVfL+jff1IECt1cRXgdHbW21DqJklQ6mqX7fKfkTJ5nzQVZ2rmRlZhpiRilhiAn4JTsnVwdVo3FOphUXL1kiyamZkpGWomWkSkpCgsRrWTlZGVJWXikBHeyJ8QkyY+ZcaWysluzMXGlX3Jo+LV8KCg5oOR2GHCAFBGXVaWdIsx6nTJ1mhCden52u9QJBo6NjtAyti17PSEvT+uVLQJE0Jy9fKoqLpE0Rub21zZBo8sTJkqV1aFVEm65lQSjycjIkK2+S5KanSXFpqcTGxDIBIkuWLNV3NkpKWrqkaaquKpNZc+ZJTFycJOq3eLTcmrpabb8Om1JtVzXK6tvULIuXLpV8bRMI38KFC6Rdda+8Cfla72TJzMyQivJyJaoemTFjthKtNi0vSYoO7JdFC+dqO3RJnNahXRskKytTJk2eJJUVZdLU2myIjFcXyH/a6afb+0LaN7n5EyU9NQXqKqmK+A1a72BHSKZNniDp6RlyoLDQiAl1DGh/cRwnACcm9CIAzS0tOlDgOl1SXlIhrcq4An7lNTo46hvqpVYHni8QYxzLuLxyvarqaknNSJWDB/YpQUiQVuUyIemUuppq5Z4xyjFD+rvOBjiDsLaiWrp8IWlqaTZO1djQpEgbbXmrK0GEaCmrrJCE+Dipq63VOjE44VUh8QdipaO9Q7mcV98Vp8jWLtEqdTDAlTeKR7l4l9atSc+jA9Falk8JV51e75KgcvemumqVWCgpZO/s1OudHZ2SoEjiU8mlsqJYAopsvKNDEam+vlYRJFbiEuKktrpepQblthKQlrYW8euvZs3T3t4iHUpQ6jQvNNThqyYCmB0FxI2Pi1fi0KDEJCBNDS1SWV2hxCqgBMGrxKhV66v3YuP1fU69sZEgSbQqoYiOiRE/3N/EJZ9Uax80NLZYe8RY+UpotH+aNS/Et14JTowS5ob6GsnMyjNiEexQqUO/D7WnTQlzfbNjlEVKoR3GCcCJC6YCzF5yqtRUV8l1N1wvb61/S0qK9kt+/mRZtGCu3Pv7+yVFORwqQNmBvYb84fEdFjMRTbuUG/ntGojZiXqgAyoYDCmHatZ8ihaax1BDxXjUT1c2pbzo6IBecNQNrnV5VAxHDO7Sa6arKyVS6OryGLdD/XDQ2AFsDejPqBgmhOu7UUesrmHo1PchLTB3Qd2am5oM0UjUBzHb1A+wOFx2lBItr0eJkyIWNgV9kyZHUrKK0gCcY+tAvTEc6q6VqQttbY5txf0GK1eJkbUH7+ZZfdCviA8iu/YGq7v+pCYQVC2di3bd46GtIMJtpppwjXfxJN9magzXlMtHqUpBCXFKYCia37zfCtc8HR09ZYzDiQcOAVi8SgeqchDlHGUq9q44abG8+eYmycjJlibldjHK6Q+oSHpg7zYT6Rk72AEYhJy4CMggwlPQAWeA8a/73CDMIxnfkc9YUeFnwlm70JHtt2GW3gORnDLdMtxnwofwuXNwXml/7BnAQW3yOjo0z3TXQy9ElgmRwgfSKQxwyqAUB9xzwEpzftqRMvg/2DPhc/e9et63HpxbdoilQe8yuGwt0+eZ7jKcXM7f7kf1h/0Ol6kFWBsPo4zuZ/qeu2WOsozwo72fIZv78CDff7TKcM45Os84OZ1fDhy6DPth0P8ZB8LnEc/0KsNuHqKMYfRDz/jnph4jjYBwDvTXj9/yMfnBD34s0UoQMCQhOpaWHJC0rFwzzMXERMvBgj3GbVTplFYTIX1aqL3dXsCLAXuRQt9zqwoV6D538jingzwTPg9nUhikDD2618wFWWHwMsLP9DkH+j4zaJkA1/qeA+Frfcvs9w6FQ9Xj+CuDX8N9ZuC+BAZ75siUoUf4DITR6u6UCTjjm/63g547x577zhGg3N71cI6DPXN0ytCj5uEspMwUabMXASAzRixEWp8htPMgTj97tm+Wb97zLalSQtDuCcgvf3WvvOPssyQ9LVV+8pMfqt7covm11UYK1IlKWa2cS4OBe/uQecNlhn/2gmGXEQFki8zet0zA8riZ9DjY+98uGKru4xAJjlo4FByXbaif1C0EKZgcrQO2mwAElfPHxMRIXHyC7CvcJwHVh90lhnD6wj27ZfmNd0hHS6N0emJkx78elNm5qWaJfv65p6W9tc507xFDGGG6j8OBQ+UdTlkjed9wYTTfMg5vP4T7CwbG7BF4gJec3+czZshNswEpYXCnxgcHCgMPHHV1YHAHyWADZThluDCaMjzSrpJ7Z2t7DwFgmo1ps1NU/6+qU2TWxnj2+TUSF6dqgCJ2dWWJFJTVOe2h556gEoLWZlU7UAliFPkP1TDjcDTBHRZu1w9nKJ1o4KCIivjaMj5Vcxsb6iUxMUUqK6vljNNOks179kmwoVZagh7JSk2QuJRUKdhTJIkJMUoLeLoPIAJyvfuoCAjhcM+tB9zn3N6IPB/i2X5lcHSBcyB8rzvLwGUY5/cwRV3fWwUIBoMqyitVUGRG32FOHYAAVFWXS9HeXRIT60YFoiDHkDYOxxqgtzKs7acB4l+kPnmig9M+PcYygPUvSUnJUlleKnfedZdMmjJL6sv2iUfHfLavQ559a6v85lf/J/5YZXg80Hfwd9vA9GgNPtg5l/it0N0nh3pmoHM9AP3KCJ/2e0ZP9b3M2uXlTJCy8oP9jYBdSgQ4hhTpiQmAhZ/pqarKMqkoOyCNleVaCPxkHI5FsK7WTo5PzzYKj78BnR+lx/b6av3JQHBHzokKKrXGpUpbV4f+7DKvURGfiv2NEp+QqJe6pKS0RDraWmTK9NlSXVYsjW0dEhsd0PsJDj6NFXQjawQcqe4Jv6tTcTwrO0/Ky4t7CECHqgDM90+eNFH1+RbV/2Nk5+490tzSJJ6oaFUByqS2ukp2b1irRYwTgGMdJs1ZKtOmz5Dt27Yb54/SwV5UsC18dxwycyZKet506WIWSxEff4yWplZzS8enApW4VfGgM9hpvite1rfYNPTYAlOLPp/X3mMQQRB6+LYDLl3oe60vDRn0mv6Jjok1AteLAOAI1FBfJ6esXCZr1rwhgbgYaWlskjNPXymvvrZOYuMTVQIoldqaKtmz4WWtdLiy43DMwtSFK21VJ9KaeW3qkCjauzl8d2yBuHNTpkyxOHN79uwxl2yIjombikzbtm2T/Px8mT17tjlo4cxVVHTAJEwQLUG5bmlpqZSVlYVL7A+ug9NgwPv37dsXPnMgNzdXSkpKwme9ITNviur02YoZjGUHZVpaGpTDJ+ulTnPrXnXq2Q4mdYvVfdHKI7V1DRLHdDnrUPRfpzJHr+XX31oOU+hmTBwEvEpcKsorJSMzQ7/PWQPTDVRLIYhnqv72KQFiRq5diQVSuc9ZKOIs0dfzkBIz3MEJ3BN+tBf4o6Plrddf0u9slpycfCMA5gqcodSQxTHz5syVPbt3CYtc8CWfNHmCHDhwUHx+vy06gSLWqBrQXbNxOGZhwhQVXaurJS4+znEX1gFZX1Mevju2cMEFF8i0adPk97//vWzdulVOPvlkWbZsmcyYMUOWL18u//rXv+Tss8+WO++8U8477zyZOHGinHba6UYQ8vLy5YwzzpCKigopLCwMl9gfIAADGt7CcPHFF8mmTb0JHO/uSxRciI9Pkej4BPvNfDjl4wMTCETr8A6p5Nss02bMNeKJmZB3902Nze3ylf+8VZqbGiU5OVUSk32SmZolKZnpStT8snjhPElLiJP9xaXd9e+bjKYpvbAQfFqPvvdZ6zF73nyZlJMlE/OyZcHCOTKVNR1pSVJX36rHRFm4aI4kKdOeNXOq4mmj1DfhKu4QYDcxten1+EySd4luU1ODzRNYhti4OHn4z3+RL33lS3Lx+edIdnaGPP3Mi0o1HEPgOBxfwKo/Bp1DrPtyrrGFf/7zCUlJSZEnn3xSrr32WmMUjY2NFnGGlYYQBzh8UVGRzJw5U55//nmpqqqyRVtICuSNV0I1FBzKgIlU0ReGkhgQ53uTk8i8Zh6U6IDf1oYEouM1xfVLKcmJ8sAj/5KqumZbDNfYGLL1M/4on2Rn5Mj2nYVysKxaEhXZMKgPlPC+9XhZxMZ7YixF3meNSFVVjVTVVklZVZ1s27lfU4HUKPKDyGmZOVK4T5l0UqKUlNVIU2tQYmMSepXRXVaciv/2fT1f3ssIyIdjCcUXAEOBiRgKDCSMgI4KsFYJxtjrQuMwtjB3+WqpKKuUpKR4aVSOEFAEOlIqAIAI/tWvfU3ee/nl8vWvf93UAAex9f16fOGFF+RLX/qSnHTSSXb/nZe+U154/gWzNcUokhUXF8tPf/rTcGn9wSJQqYg8GBAC+09/+lP4zIEzzzzTiM1AkJY3UZLS8hXvO01Ux8WdFazxCUlmA2htbZKg6v2spfAKa08GAsR8vadta+SJP4pbxnG1qixGw30db9pBQZ9h8ZnPz1J1pwB9vBeAb1xzkdchT6zp8Or7w+s+9H0en3PNqUh/MBUFNUMLy852VIDumlFge5sOFNbfB5kKdCKGjMPxCUQpOJqAqP2Ln/9cPv/5z9kKzJkzZ1jw15qaGnnggQckMzPTRH6OU6dOkZdefMlBFBV74dRcHwpcN9yRAOWPBlhshbjsU8RyxGckKkUyO7KwrMsS9gNmyUBwdHePEgyQzKvPs4DMC/IrXpmdIZw8fY4UGGC2DZ6KxKLnfGqU4rCF3tPEb5++x6/I7VdCSL38+j5vKErP9VnN4PNrsmtKeLTOXq2f81uTlklixsOC9ESxuC38ra4RsFnFscWLFuqNLikrKzFfgLi4BNm/v9CWtY5LAMcXzFt+lpSXlR01CcCFU09dJUuXLrG4A/v27TcE+r//+z+54YYb5D3veY+sWrVK7r33XosXuX37drNPJDC1pvW76667wqX0B1abog8PBper5PHnP/85fOYAtgUkj4EgXSWAxG4JAA8/JzBKXHyije+FC5dLSCVgl4hQP6Ti1rYOiVdxndWjYIFeDnPdMEYpYPgz6Ufxx0U0u6+ZW1vbLM6GG8zGELIPw3aeb7Zl5M773UJ63qHUQctqN0nLo4SmQy8EQiqtQC30Nwzdze9ccc7iVBVYt26NxERHS6XitCMB6Et4aWVVpX4ga9BZ0itKyWutkuNwPELEYDmKsHbty1JYWGQ6Plwd5L/oogtNGli8eLG89dZbNqZA+spKVJQkITw1184999xwKf3hUDaAkcJQrcOb0K8JHEOsB1KrElFvIFauvOwiZYweyc/PlrzsdMlKS1bC0SxtSsiIs48twp7T51lh26ZSNam9vVXqGhpkyYLZkpqaIrNmTbHn/YqwBOR1nnWeb2tV/b6Da86zTjkkJ0+7pvq6ell+0lLJzUm3uA+z8nMlOzdNn8VY36x5SPre8PMW9FePxLLoWbGrxIY/nGKFLFWdcdeefXKwuFSqFfnrG5o0xzgBOD5hbBFmJMDWVBMmTFQd05l1WL36DEN4iAJp7dq1NnNQXHzQpv5AfmYsJk2adEhVYCQw1NA9ZOuoGG+xGrQQEgzSq9LCpq3bZfr0GdLe0iQJBGvx4ieAyqCiP+qA5cc2oAJ8UAX4YJSTOrQ8PdZWt0isP17Pg3qMVqm6zu6HguRXzq2/PZ1aXoTk0ZNUPaDimsDXivIKC2iTnZGk9RCtT6yF8gOjyReZ0CsokahUVkAYejURhhDmLDmaa3AngsU4jMPIYOPGjfK+971PduzYYefPPf+czQhwjh0gOTlZbr/9dvnRj37c7TfAehKiE1166Tvtmb6AqjAUDKTvI9oPDozsge+jwzc2NUhzU5ty9xbj8EgpNdU1smHjZnn2ubWyq6BQ3tzwlmzfvU85frOTp7nRUm1tg2TktUnO9AbJnlIvOVPrJUvTxNmt0hDaKM1dW6SiabOUt22WCTNDkjetQTKnNUvWtCbJntEosVmlNtevKB+ukaty95z7fB7Zs6/QmPXrb2yQDTv3yeZtO1XKaFYihP2H2JIEniHIjaJ5lxIWRXeCv+Cr4EK/mIBAq378yhUrJCEuWsora6yDxv0Aji/IzJ9qMzpEWyK46JH0AxgM1qxZo3VoMiPf6aefZqIo8RvnzZsnL774gkydOk3mzJkjO3fuUAT2KBEISENDo+1cW1BQEC5leEA52BQigZkJpJGBIC4xVaJjE6AcRjzg3ERHIjITK1zLSgpl767NUl1VIiUH90llWZFUlB6QirKDyrXLpbT4gN4rt92wuGf3y4qlXO8f3Fcpt3w1TxLTSyVnUpNkTmySLE3ZExslc4oi+pRGJQykZsmYpMRCr+dOUGLB/QnNMmV+q+x8LVf80eCZWRqszg7eObiH52CH3vIrs4bFY5+AcbvreMiHP5KKE87jdq1Ldf8Y+wZsKhYMVq/2Ai4uWLDIClo0d6602vTgOIzDyADHHm+04wEHMrc0e2TLG5Wye2eBzS69852Xyi9+8QtZvnyFcvcOwScABzSW206fPi3sn38kwUGkHuDcQTQIVlpGpnz4mutk0uQpSlzmy/SZs2TqtOmyeOkSkwYWLFhgYjjz6wGbww/P4wdULQhESVtTSL8Lr0clwOHE72Crm6Ijfjv37L4+096sqkO3oZ02BE3DXF0T6kV2br6sOnmJJCXESXpKqpx26qmSn5srPkR9/RSLXmR0QJ8L6fNGDYjiHSlZ9FIBsII2yOIli6To4EH9uCi574GHJClmaAeNcThWYbC566MD67ZslLs+dLtsvP6P8soV98rSs6rljt+ul5L6bVJb1mKzABgFv/nNb8h3v/tdUwsIoY6tIKjc7Z3vHFgVGAzg4H1hKMNhaBDOCvAcq2K3b9tmDk6EcWdWI06JUmtLm8ydO0/q6+tNcrDYjpEJxA0Rh5H6ECCXkof/L6j/MOSz9sCpk3JwqytHJ/GppSXFUlJeKf7YeFPVqyurJRAbJx6V1inHeYbEOHDLwDbAxOQABCCoIsRsFaNqqmtl6dLF8uwzz0hiSoZVpqdpxmEchgf7tu+S9UEVkztqpSOuTTq/NkHe+Ndk+eDn90l9Z6mK67tNCkhMTJDPfe5zNkVIqDmkA6I9x8XFqSQwPVza2EN/0hB5xWORsZBc9uzeK0WFRbJ50yZTJ1gliFcjnn+oM3jyRSaC4kbH4g/glZTUWElO8WnyDzulpUSbQbGTlYpWp/4JAoWkVKyMurK8XOobm2TP3l1SsHe3BfbBhsF6/56k9bGEqtAZIV1oaa4fQKWKbF+949Py0suvyr+eeVGSUtP0VQ4tcZcDj/sBHD/wdvkBuIAjzMduuVnaqlrkFu8Z0hBqlbYCFZl/86oEZhyQF756kUyYlWYc9sEHH5RPfOIThmCPP/64Dm6fISCi+G9+85twiUPD5Ze/R/7857+EzxwYvicgEaEd9Rc/AD+OOXrBNr/RsU80ao4ONgDE08NJx1FxwEvugJ7I3z5/nFR21ug38MQIcUULgQiunLNCTwZnvSZ9hG0X5ufPufaxI/XwXHeNeoHX65dtW9ZJghLYbj8ACkpJSZa7vvE/8tKrbxryI86Y26A9Ng7HHww+eI40sBDommuulYqyCgmleOTe0MuSSnj1qR1SedscSdVRlT65S+pqG+WgcrFzzjlHvv/975vejzEP91pUAVYOsqAHGEjEjwQdwiOC3uO6/yhnHh8j6t49exQXOmV/YYFy3P1SdKBAqqsq9YVdUlNXIbX1lVJbW6nfoqlOf2tqqa+RhHSvxKUFJT41NKKUYMcOVTucRUkDAfjKAr3ExERpVO7PDEpiYpIRDgiT8z20F8eeRHG2Y5e353utVTEKsBLqJBX925UKdrQ2KdcPSW5WjgStwHE4/qCnk48mXH311XL++eebOzDTevUVDVLmqZUftr8gyR6/ZMdmqGacKIFlf5aSgmYVWYOyYMF8Rf44mz78zGc+Y5wYGxRSAJ6DgDOwBweH8w0fhqIXcFQI0O2f+n9y68dvkTnz58hNN90oV1x1ldxy8y0qUTXJylWn2Bw8eywgjpOYfiOptK2gIndIJQet10iS86RPOTqrEAf+JggAm8IQvv/0lcskITYgZ5y+Qs468wxrc+4PBsgkkaU6y4FzJ5r3UVpqilx04fm2BVhAKQzxAKsrqsSrnTE+DXh8QWb+FJuCO5rTgJdeeql88IMfNAcflgKzDoBZqhjl3s3RrdLV0Cp7iyok6UMdsnBCtJTsnyihdq9U11TLxImT5NVXX1WkD5ruzzJhfuMZh/cgv4cCphaJOxAJrEIcdDlwYooEuqcBkTCU63d02DQg09611TXy6KN/kzfXvSn7CvbK1s1bZNOmjfLSmhdl2ZIl8vTTz0hsXIwRJhYpOYnfQfF5A9KZLNLe1YayIMy7u+sHDpUsvx7zk6caRw/ThF4AsaNdtm3fKcUl5dKg0sqmjVtlz15n456hpCW/LyDl5QdNzYHQ9loNiLOFMxWD5xMOBJ3C5pjjNoDjD+YtP1vKy0qPmg0Al95vfvObNv03a9Yseeyxx2TB3Fk2pvaHsqSuLUoapE3SD2yTm74dLXkTa+TX32iWudlXSHnlAfMWfOihh3RwlqkUcY0cOFAou3fvMQeiX/7ylzb1NhQMtBrwrLPOkueeey581hvS8iZLUloOokXYBuCxWbC4+CRbzhsbn6DEoCf4p3NAx1YdnTn3iHUCYUFagXNn8VCSPyRxUXGKzkq4VBJwNrU5NCCNN7c3iSRmSazNwLnvGByoxkCEYiBg8dXO7RslUSUubAC9HIEQYzDeUBr+wgHlHpQLVRmXAI4vyMyfdlQdgZi2Y1oPj7i9yoka66plT2Os/Nx/i7zVkSnbQlNkb2iBXDP5FVn2zmoTc//ymzJZMHOlxMRGm7QAEQEZd+zYLnfe+SWztG/ZslU5+xbzFRgKBpMABnMoik9M7SMBOGqwbdGmEkBdbY0cVH2/sb5WqqrK9LxKU4XUVFeo3l0rFeUl0txYp3p/tdTXVfUkzVfT0ig35J8rE4KxMklSZbInTSbL8NIkTXO9uVKQpNxfGS0EYSBAOoBZs08mkgeEFjx100AAwWKzW/bAdCWAfrICosWUiblyyopl0trYMI7qxy0w93t04LTTTjPxn4AfICHr+pNS0mVKVKlyj2rxwwW9Plnc9rJ0KUFS9NMrXbLslFSpq260EFUgeFpampVXreI36wguvPACmybEM+9Q0M2MI2AoURhRuwf43XMOQjE7ccVVV0pefr7MmDlLJk+eor8nmA8Aewacdvpq4/TULTL5SD5lmNKuKSitnk5NHcNObRylQ9UA+m8Q5Nf6ZWdly/JliyQpxi/pKYmyetUKvZZlyD+UDaBLMTrydkQLhWypY07eRMnKzpKC/YVy5umnWLCCcTge4eioaenp6ab3g2wkVv9he3jkb49Ka0OdpHoadDj75bSK++WSzmeVcybKV87PkmQlAg3NXfLkU0+aBRumhTWbVYPEFsToxtbqLA4ihNihAA7eF4YyHDLF3RvBIn5rZTBAFu7fL1mKVOwZkD+BrdXThWAheAGWFBfrE46k3MsRiKScG8Tq4d4ch5ccE50mOLn+GggwFpaoeldVXStxCUnSoVJTRVW1RSzGfjEU0EyRJXcTAESvCROy5IOXXyzPPfuSTMzLlxLcOYegouNwLMPR6bd3vONc5Xw+RZRs+c///M/wVZGSkmIJJeXJ7e33yzfkZ7IquU7aYzOlsrpU8mIa5JXfpMoplyjTafHYVB86PhIEyMWYmz17jhGC3bt3mU//oQC7VV8YauwOziNpOY+pTTt27DaHpf1FJfL6uvWyXc/3FRXLXmWOZZWVEgPCxURriutO/lg9+qPF094iqV1BSekcOiV3dvQ655mYDmZH+oc4cwEu71d1fX/RQSktr5SGxmbZtXefLazCkDmYCsD1jg5Mkj1fby1EdtYZn3baSvnZL38h3/72nSqxdepH1kmIkCLjcBzCYPxjbCFfxWJ84p9STu7C9dffYMRgQn6etMVlSHNslkQnpEpiUoKKuUG5MHGOJD0yVRbMipOW5gZ5/PF/mNgKwhKDgmi+qABPP/20qgXp5htwaOj/vUNxw965FQ0i5GKmymIVsQmcmZScKImK6KnJKaYWJKu0kpaSpteSJE6RnW3XiQrck+IkKzpG/js+Wf4zNVe+mELKCafI3066065pSnXu35GcK19IzZdEqyFpYPzjKpKAGew5atthwxsM+buB2+guYTACwClTfvfd+6CqAFPk+9/7tVJwFSliVPeyVUTjcPzBke83pvpAThx2fvSjH9m1T9x2m0yaNNEGJgZBxiNiMSJ1UMXnpsZGSYjySHUDnvIJilSJsnnTRlmyZIkRABLGQKSKXbt22TuQDihzKBhIAhhKBejXOhG4xk9sYfX11bJ3zy4JKjcv3I9LMI5A+6S2utJ2D2KfjL6ppqpSmutqtE2SJTrk1RQl0ULyadLzgVJI74U8ljdGz/1RsZqwewzchxBLDJUJ8XFm6CW6D2spcKBCkh8MeA7JoZ8jkAMqVmhH7i3YKxU1NVJ4oEjKKzHg+MP3x+H4gp5OPlJwyimn2KKeurpam65bNH+hTJ40RULBkAS80RLrj9Ghr1y4Uwee1y+FBYWS4o+TB9s2ypNt63TwtUtc1kTJSiTEVsiQrlCRbPLkycaQV68+3bgaFm6Mb0MBFvG+cChuCIGAOBlEZEWvx8vuM5/5rNx8882yYNEiC2l21fuulBtvuknKVL255eO32qwYhKdvwjLv0TJALicuIIjmHj39k6dTj3Bypy5eW7HXqegPAej/DWbNV2lj+cnLZPlJJ0lifLSctupkOfOMsyzI6qGMgJHt0r0WoLa2Wt57+Xtk3RtvSXpqoopm2DA9FqsdCn+i+QHMnj1Lpk2brh0aZV5q+KezhppBw6o1NpzYvXu3TV8di3A01gJ88pOftDDfRcos7r7nbpl+/TlSVXFQBzLLThUBdJwxFt0Bh0je1tUm52ctk+xQjqz8RLtc85NPy+md98tHVmRKWU29IRDI/sQTTxhB+NCHPiQPPfyQidZ33323lTMQXHPNNXLfffeFzxy46KKL5B//+Ef4rDek5uTLxKkLJNjVIfXVNeILREmzSidxKvYH/AHVqxukoqLMvgVuC2LZbkEtbRb3kFgHrBAEF9zv41tB2iS/R+pX3Cotba2Gv5j2BvPq6wvQgDZvlFzs3S4tiOpa9kDmQGYCOrR8JCZ8GNjXI+RRSSImVtWBgd9F/Vi+vHnjaxKrUkO3H0BG9gS9GTJRq0rFGFYO1TfU29w/FkZeciL4AWDlhaudfvrpqnumOh2qHczyVDgcBhbaAOqbonrgokULZMWK5fo71cRdrN/HChzpgCDs9HPqqacZYryx9mVpW5IsobYWifNFW5TbOF9AYjTF2tFvKaADOy4qWvbUFclZy3PkNd8E2bRvjuZplM+/c6FU1DbZOIT7Mp1Im2MU3LunADwwpBsMli5dah6DkQBxgkgPBMT7P/n0syU1O1+K9uw033r8/80PwAvCR0tmZp4FJ0lNTVNxO0lStc8zMrNUNWiSrKwcSUhIshQbm6AqNLYCPY9X7T0mXkKtDRLoUPG8pUpiWqslWhPHIVObqt16jGsqFm9DmbQHg9YG4CXjLjIRXAXvSMZkWzvqVZctXrL4f33yOqnZvH2JdISPA3se9PMExLkAZHeWCzqUx41zdjxIAFBiLMdQORN2dDARYWYoxOQZXE/nz5+n3DJZrzgDECRnbhrfbhxEKIsGxzmFhDRAO+BZxW8WssCxiEqDT/vbDUfaExAffbizqLj/i6f+ILWxLSrEDj0F5UK9DsSPnL5CCqfOlT+svUSWdfxLPjK7VWqbnSk0AoLs3LlLFi5caG3LhiNIod/5znfCJfSHkUoArAaMjtP+1v7zoar4vBYZGwnAouZUlJo0AhMwDqz/+Q1AjABX1I6UAACi9BJ7HzWA8QSEbx0arChVALRMQpGjNKAShG8cBlADC1KuxCre7Cx8Yy8CgB5FzDCMBMzJunAsE4D58+dbMEnmaxHXQVIIGb/pIEdEijIqyAKVmppaqz8InqnUHOMn3Jv55vT0NBNT6+rqhbDOLAhxn+c6Cy1cQwtqAFFtyYdaQD4S7YY35ZNPPmXrxt8umLd8tRKAI7cxCDH/li5Zom3pkW+t+ZWkx6oEEL53qKG6v6hB3vrjRXLp3bNkf8Lpcqn/FbltVYaU1zVpezZYvxDOGwcjCCsEgLYfigBcd921cu+9vw2fOXDJJZeYS/JA4LgCZ8EnnPGiY56NcFkODAGoqqqwPneRfGRAC4zmuUiA7FDG8NWH4QEMK6DjIsUIAHYJK75dudycObNk1pzZcvrq1SY+HqvAdAwhpG+44XqzHoOotSrW4IfONBIdSmAGpAGmlCZMmKDi4CwV71fJ2Wefpc8stmsNDXUWjZY49oiaVVXV5n+OWJWQEG8DgCAVFRXltlCFaSk4E4gOwSHAJWVhqWY5NYSAAQwBueSSi20/vH9HQCyG66H6dAbbzeDHwGIcDT5UncHcqDr0TZcuFn/KRtnfuswQMEdqpFX7jIjBDE6Qnn7hHKnKJexDATaavuBy5oGg350+ea08veREBiZ5I5J7bbAU+dxok1ZCjzrYBrh3GImC9ei2QLcRsEl1/rlz5srCRXPl4Ycellnz5sruHXtt0QMD/liQAJjqIMY887MMEKgzSAfC4kaakZFuog0fxzUAYkAeAOREvH/3u99jXJ/rlLFhwwbT/1k4gr5FWdnZWfLMM8+aDumGt44ECAhiMMjP2MnOzjGOj0RQWVmh5bSa2Mrgvf/++8NPHT04kkZAZ3PP0+RUJagb9m2VR/etlXjWrw8KIL/2UyhK2oo7Zdvas+SHPyiUr+y9WzGtUf4j4TFJ8naIL4ChrV1uueUWufXWW21xENGC6EPgf//3f+04ENx4443yq1/9KnzmwLve9S555JFHwme9IS1vikoA6VotZ3st7SbTiePikgw1fIForbFKdoow+OSbdU4/gy/xdKs6ekZmhpcREAepjmWgmuwRgA2gtraqhwA01NXKueecKU/96xlZueJkeeutDdo5AXODfLsJANtPr1apBE4Pl3dFe8RtuAUDEtEcpKNu3G9XAtAZRNSP0Y+G8nlsXhmJAc4CwOExZlFOXFyMEoLNUlRUKFu3busOaX0oAMlPOulkue22j5tkQpz7vXv3mBRQeOCADiCPESX009GJk6ODecvPVAJQfkQIAAE/SAvnL5BndTy8XrfTDHwOEvQGZypLkaurWXwNsfKpd6rk9v+2yTtuXiTrE9+nN9rk8UvLpay4TGK1L+H02J0qK6vMIEvgUIg2BP0HP/iBlTUQfOQjN2neX4bPHLjsssvkb3/7W/isN6TnTZVE1h4YAejZGQi3ZJvWxKqODk+f6dGjjNCnUkFHsM3Zbj2gKqaW09bcKrEJydLR2mrMMuAnqnDkSsFjD6haUlKifm9LeDVg9gTjVHv37pMVp6yQkoPF8u7L3yW7tm+XDhpHke3tmgVAjyNeHOu6Mb6ByOjrU6dONTEc5IXrwjn4Bmc5c5RSuGizgDNNB+EwXT0YktbGJrnm6qtl0oSJkpOZbTusHCg8IK+88qptbf3MM890E4jhANyJve7Zloo6zJs335xjQHolO0qUnNkBpAWMg0drYDizAEcmHgCqT05Otlxw/vnyxLPPSqm33ghwe6hT2lQlaOvskPbOdh07QQkSmz/kkUXts+WyM2fKhz5TJUWFtfL1pz4h3sSgJLYVypU5lVJW79hoMPw99NCfVMI4Vd5443XjzhB7xt4bb7wRrkF/YEvydevWhc8cYIVg31DhLsQqojthwVXT1irqK4zIIIXQbp+46aNy3fVXS052tlx48UUyITdbahur5MknX5akqCaZOWuBLJ6/UP7j9k9Jnqp/p551jiyaM1MCPq9U17dKfFysROvYPLaS1ik6WmKUKfp8sTYz4EwD5ky0yD/oNyVFJVLXoGKscrJ3nHeebFj/lsUEeDsIADo0YaO3bNliRjum5uDYIBeiOiK8IxWUK3JtUi4eZwTCtQNwv0Z/V1dWSmdLpxQEy2R3U7E88MSj8reXn5CnNq+RN4u2mAGUDVGeeeqZ8JtHBxCQv/zlzyqRTDDjJOGu0JcxGDKoVq5c2W+q6kjBkQwIAoHDRZe0b9t2qfd2yWkT58n0hDxZNkHVyPTpsjhjhsxPnyZz06bKdMmSxKQY+fy326VdmuSKW06Xqpw5tgntRXltklC9Q5o7Og0BQdqXX14r73//+xXh1wku6ggWO3bsHHRKD2Aa8M033wyfOTDQEmEXnIAg8QMQgGjbX689KlreWPOcSvchefH5Z2TVqWfKq88+KU+/+KwcqOyQro4m8QZ8sp5goXt3KzPJkJdeW2sefAdLSnRMOVN0LKY7ZlKHEmU9tqqkjP2mqbG+ZxaAOVDQOkp1Ho6EagLhExTZsJAebRXgyiuvNPEarsq+5lmZWWbUw0Fn9+69KiKW2+BAx8NZyQWm9DD2tba1GDGIUd20vatd1rQWyPT4dFmQNk3iEuLE5/WpJueTipoKKagqluJGVS3SVRUIdkp9WZPsX7NRyxj9kloI1bXXXqdSS70SopDWcZ9SXb+lhx56MJzryMGRnAZ897vfbdNzK1euMKlm/sx5yvkJga3oot+KKMxeefRfp0pd2Gs++cMmqZUGadlbLqv/64cSl14vzfVdsvbKKikod9oI0Z/AoKtWnapEf7Mi/S4loGlKyJrlr3/9q+zcuTNcg/5w0003WeCQSLjiiivk4YcfDp/1BicoaLaK9x6TMroDgqg4TyCchvo6HT9OwE3CfrXq9+CM1KXfaaNfpR0zLWm7QqDAF7/q1ShBuDE74Kiew4FDSYYjK4cUmd89V1VGvwk1KzsnT8pLw9uD8xB6VmpKgrQpZQuGgpKekSg5eVn6Yc3hh48OIKJ85CMfMesvYvuECfkyd848Wbx4kXH+8vIKQ6Dvfe/7phNGIj/Aiqjt27dJUkKSimqxUthSKa8FC2V1/HRZkjxTUpNSJaqLPd+jxKOdnpmeJQvyZ8jqCUtlSUu+5LdlS05ankz8wOpwiaMDuP+LL75oRAvuglWZTiTWHQa0Iw9Hrs8YQMnJ7KIbsu9raGuSkEoBHSr6d3lC0q5IgjSJ/t/Q0CJLVvukU6okSbn/XT+5SCS5U5pDXjkjv9ZsJqWl5WZoZQXgJuWo9DMcHw9MdsCFMAyF/ACzByMBG/jdbcTRSXZF8SWgkgAEDD97pEMi6BAnEyTHgIavCTNE8SpOIwllZmWaDSg5OUUZVoIlwoa7BuihgHbEHsVyXnYEZp4eaTY2IrmG0KGAchyflEQrg/djI3POKSfBVLVIcNqBD9YHM7OyVXRdLKetXC4trZ0ya/oMFd1StOCjY/SjwT/0oQ+aDs5vfMLpWJx0MM4w8LAOo+vxezCoV12SbZ6ead4hkuqTc+JnS2x0vCSmJZsLJRs9wnFw9KFhA6ofJem9pMxkCei9tI6ALG3JkulXEJp59MD2V3A0piSxW0AAEMuJVJOczGzFkYTRSy+HAmd+HKTcZf2Cjo4BFiLnOGFB8DzmTluwf4e8/qxPnn4gS178fbw813C2Pt/CSiD5UMJ62VZYoblDNquCnYd+4TcE1LHv1CtROLTkQky+vkC9BgNi7fQA47v/GIeZEgA0qG3JeAuqmoJXqCGMAsgdo9JpeXmp2YFY61BaVixNKkk06bfXqxQBAhJDoKm52aJsY0AkMe6cUpxyolXFLdYyDhQVqgpxUMpKS1UiadRymqRZ60A5PIPq69TFKSfyuymH9TzFJcUWkblMJUDGG1IozLS5qVHilCi49QeshZgfrKyqVn1pt6bt8uKaN6RNX7T2jfX6kCNKHw0gomxFRaUNMIdzOjMQ7MKCY8hQ00CRkJWXKc817ZQLJi6RhTFTJUp1tXilgOhklMfnuB6O1hE66KD9vBNqm6HU3B+KkqnpeeJLO7ydkX7729+a/YI2zMvLtXfSGeyOe2ThyBFtvoHBFmksxRaD2+ratWuMq2/YsEl279ptEp0nql42Pxcr69cvkVBClEqYHjnZt0MmT51qXApDKbMmOO189atfkT/84Q825ctAZz/9AwewOw0Nw+G0kRDm9RHQf4yDbDdc/X79hhSZMnmizJ47S6ZOzJJ2JQQuoKJiuPz05++S3/z4Hrnllo9JQ12jEkBnaS5cWbUg+fBVVxoXnjVlqsybOUsm5mVLV4cT55A3t6iac9F7rpK7v/kV+dSt18nHbv2YNDU0azl4I6ospYklQhecf67k5+bL5CmTZc6MmZKWnNrNDHlfsxKM9+u7LrjgDLnive+W5pYOK4P6UIZRtQjoJpG2/bEOmk5FEulsty2PY/2OD8DRAGLKYeWH6lNRVBIqTfP88Y/3G/LT2MOBTY0H5MpZZ0pafKp0IbapdAORo0NBfMrkHRbBVYmNC1zDaMcUCYEecpsTJX626omHCdR//vwFSoA6zTZgFF855XAi3Ywejly/FRcXO1xIE/o97ctsyz333GNI/Otf/1olHhbKOG2P4SkvK0bKPUwVagFBn3xmTr1s3VdqRIMNPAj9BYGm/dnMg7ZBQoN4ohaMBoYauw4a9EaG3kBMTL8UlZTLkjnTZHLeRIunl583Wfuv5zl22pk7Z4k8+ejD8ud/PKMcNlmy01XU1j7m+/ncro52eem112XpksWSmZMvcUmaJzdXywnXTzPB0adOypXf3vugbNmxX/Kzc8TbybS23rex2iWTJk2RrRs3yex5cyRfVePc/DxTlyJ3+gmpCoYHoVcZGIZfD2pZlzPerT5wvwjongVgocCChXMlLTVJjwtkx/ZdJoYDPHQkZwEQiYkk61IyNwIMUWb+93//20RAFnYgFvIRQwG6z9zzl8vixCnS5ukUvzdKxbhmG1xwI94BkUEXws/fKc/xK+Ce0z4e6/yUuCRpTA7JwfWDW59dcCn1QACnZJ566tTJUlJSau1Zp+LhJB3k+BwcCTiS04DMcECgQV6kmYkTJ+t3bDbpEQCJV6xYafPqSAYqYikz8clPOq/Spg1JfvWLsjq7Tbwx8SZ1oTo88cQ/zd+DACOvv/6a6dO4WnMfW8qhAL+EvrMAeHdu3jyw+hCXmGZitzMLgDQYsjGC7k8/IhniBLRnT4EUHCySfQcKbQXo3qIia1MXjdDbN27eYOL6fpVUXnv5NYmOSzQ7AbNnEAL6Gyl2z569su/gfinR8ooOlqm47tiFkEBT0tLk5TUvKdFrk6LiEnn2uRclPTNXGVSUTeFRTnVluTQ0t9n0PFPXuwv2aLnOuhQAIoF1f4Piy/6DxbJjV4Ekp6WoBByQaG1/xj22NYyeONOhpjgkyCrRZRbOuLhkrcgrRq1chDzScO6577DBRAXhkFSShsGhhg/Emsu6czrlUNAVHyUzUvKlqUN1Uu1AjDboSehjLAyCiDGwsIYiYYD47oYODIBgkA5zCIkv2iezEnJkOCERaNShgNkKkP366693pBt9H52AL8ORgbEl0pHAUl2IC+7S6MRlZSWydOkyiwKEjebjH/+4tSHx/UDkjPRUKQ2lyhLfdjnJt1cuTCuVhqDH1mVg3EPEh6vigclCGseg53AtEGc4wHgZCTBjwTsGA5eYBxRJMfZFKxLBEDkyNch93tmg9fPo+MLpzKuExOdHDG/UsdYkjTreYKwAY43xHctqSQyMNlPgfCMGU4KJMCY6tBzUer/Pq2XUGYHlHWxWCqH06XXsDkTsxnbFjAtlkBjLNSqR0RRIBWw1Sh1awgvYaEsHh/g259u7ZSQ6gCWOTz7xlKw4ZblKAMqZRtioowEod01NtTUQ7rgnnXSS7SwDEVi/fr189rOfNY7z8ssvh58YGvjAgN+x0Jp+rw3DkcaD6zO4UlNTFNmDplK4RA43YSgoDQxxYB6X7yeSS9aqBZbncOC+++6zNQesKUDiQcphWycknyMDR7bvcJvGuMkQwdCJegVhRXfHWxOuRMIeEKX9keFRQu5/VS5o+5ecOneKDuJEM/atWLHCZnIoC8+/u+/+Ttizkz37guamfSRgsNaBG6MWurMAePaxrJlxQ2JamSXOxAzgPkiNJAGX9qtaFwi4m4Q6iTxuW1hShtTrGE6UQVkxMcw8UG5PGaTIvG6iHv2uUY7WIy5AipNYZitUEukpR4mYXsMwSSMYAQBJ2OXk6WeelUsuuVDFpi3y/g+9T+Jiow0pjiRgQIGSwgnx5Z83b652gF9KS0sUUdPM0oyFFW4yHKBjO1W3x72TwQmCQ9yQINDtUQMYXIhxAJIHA9cIh3YW4qDLTVpVd5uQkCUpmSl2frhArHv8FGhT6sGac4KOHI9Am7EACw7P98DJ8eQjDj+qGu3OgGSRFGvUPdqnTSFt89hUyc7LN8mOIKD0A2WdeeYZJiLn5jr9jCgMErBmYzjAGB4ZDJwfW5hxS+W+laq6NavE2NzSqt+AI02LlJYd1N/tUq8Mo6a2XurqGsyARwAdFtThbNOu0md7R7MdO1SqtqTS5YDJva/MCJsH3+08TznhpPd6ngk7GGlqD+r1XmU7TM0SZQS1TkGtR1DLtLIpp037pkOatc6M8wgriXI71clef3O91OpH/eMfT8u5551lH3akuIlNkejgAfGACy640NxACQX10EMPy65dO0zMxBHE5dSHBK0q+i4iEGI9kgRTcAxGpqw4Ig2ozGMiE8SGepAPLuY6cdA46HH4inujMawMDhhihgM4zTz66KMm8sLdiCjDgBkucRsZHJk+i4R16960NoSYOZKWM8tCYpA5BNVRj7iGSzkDlY0/mFrOysrUfARbabG8rKzEmGhtH+1wxMF0+L7gEu1IGJp59YjBzm9QQb9BK9ze1iWXXnSefP7zd8jUCdmy8pSTJDU5QTl8vPzixz+ReGUkl152qXzq5o/IFRedI+ecfbZNVSfrdbh/XGyCxMYkaeIY76QwB+5JXAvfs/vKrWNVReDZ2MSe68N+NvI+55RBCtfDyiav46MAoaNvjADQDIZg+sOnojidgXvtQw88IrHxsdYwRwIQg6FKcH868LXXXrPNINwNIffuLTAxEYAQDAu0nICKcB5FfgCEZ30+gykS0PX5YAavkydgBAC9lMHK4EE6IKxTxYGSQVsAEZ5BPVzANx0qz/uZFuI9ixYtCt89voB5e0eairZ+RGymLbBxFBc7c9D8pj0hEIwxiK1ji2m1I6rd1KnTbKEWW4Hn5uZpGXAyJ7INhHk4MJAE4MwiDRd43pkcDER7JDZ9ohQWbJUPXX2jrQf49S9+JClRnVJcVief/fhHZHJ2qkoJNRIVn2RW+bu/+WXxtmFnQt+uNzfb3ok5/UbT6Znbb2pq6JOcwDX9r5O47iby6TXKbHITecLXI+7jQ+HkQ/+nXrWa6iwiEA5HfLMRABwKWODRroMdkQxxZO7cubagIUO51NCUdPRAIA86CaoFArL4g9VbkV5fDB44pMO1Dw2hlqAUN1RJtCfK3DiN80Q5sfwYJFA+HDJ4r8M00Pt9et8x6mDNhyvzG1tAbaeKgGUNVvZAQF0hHMMFlgpDjJiO5B18O4N+7OHoGHBZdwHyQ8xoa9oUQ250tN9mPyAQ3OceyIz9gxkd7DrYe7D/sKUY1n58AWgXkB9kHMmirIEkgKHUgvDQDwP5nLys+o1R5PjDvT+XBx9+VP7zji/IAw/8SU4/5yIpaWiTu776BfnUF+6S//nRL+Vn9/5Bfv/AQ/LNb3xTbvnEF6SysdMIXKJKhPEqbeJGz9F+h4/JyakSn6CqqHJkZ2z27C48nMQzENyEZCf8GF5+GJMjk11TaYR34tcCM8zNzZfMrDzJzMkTv0oEXRZlKCwBAB2tbTJn+hRZvnShpGvhnaorzJ09U/xKRAdvxsMDdH4QgI8CQRFd0CnhDi6wWSQiNh8dCTwzEHQ0tcqWvbtNlEPkdIB5VCylXTZvy7JOR2TFnxujT5RRTrgXXIplktzDEMiy0JZ9eKuNDWDPwBDD9/JuOCQEhymwsYX+CHEkAHXGIZYsqY0yNQtrM6I9RJ02hajSBxgI4e4stWbKjiP6NLYZllRjuEUFQ3WjzIMHi52XDAMGGg9DEYD+rcMVTUTo1XES8NFHzjfAFFMUJzCcETaOgJrMMNkUnd5nxmh/wU5lLoqkWo+KsjKpV8JIZG03fHi9SgZwY6c9ohSvnDGIjQMiyhFC2aJjH0KJzt7czG/V5fV6szKZNn2W2Tok1lJtm4rKcuPmeCsiWbjJlSbAGZhfamqGTJ81T6ZNnyVTp8+ViZOm6Nh2pFbzA8jKmywVVZVSVVsve/cfkHb90GoVhcsqKqWhSfVi5ZBj7QewcOEiQ3ZH/w1ZxVEFGFBY/10g0EZ+fp4hTOTKrqE6t1nFnIxZkyTTl8g0rz3rctzIrne8AZ1oM3Q2Rie4M0SpUTvM2xmSrV1FcuD1XeEnDh+w/DNNhvTD6jbbgr262oxlRCMaKziSfgCR4Pah247M5DCgaVuMexB52pU+QFLCL4A8PIck8Nprr9oagMmTJ5kDkPkNKFDWSy+9ZCL1cIDZhL7LhVGtBrMhxCamRvgBMBZYDYgaE6vt1SaLFi6Uq977PhX/s7S+yXL22edKtCLtzMn5MmfRAjl79WqZPWuazJozx2at6qoKpaK61RD0sssuldkzp8pHrn6fzF24VFacvFjWv/yieAJxSjQcooiNg41GL7r0crn8soslPS3V2uScs8/U8ZcoGUlxsmTJAsmcMENy0uLltNNOl+n5GbJx+14bwVdfe70smDtNVq86SV544SXl9Khajncr49xx7NPfEFM9JiSlSau+F6aDKsLOQ3hgGtkElRCDQXQoGoUQaZRwyNgEjgSw0QODAoTD3XPOnNly3nnvsHpEAhQQ8Z91AUMBIqQL7SVNcqCzUgJhrgDnx1oLVYW6Opzf4cBco0NYxGHz8/q9EKNoFnrEx6pkdGjfg5EAhIswZdg/qANqBlxmwoSJYQI1VnD4RHo4AJehPfkuDH/8Zp0DnN1RrWhnVts5qhy6KJGTsIMQsHPOnLnmOPTFL95prtIQQ1fai5QEDw0j+15H23ehd7sTFbikuFSeee5f8uorr0jBwRLZ8OYGaWypk/0VVbJj6055Y/1rFvdx146d8swTj0tVnbNoif6E2zPeHvz7v2TN2uelub5FGrv0HdpGoVDQDIUQuICOsT07t6uK8UfZsXOvFJeWyfq33pKDRQUSm5ouu3btk7ri3VKhz7/+ylp5863NEq3cn3Z9Y9162VlwQCqLa2yaFcLDFCaJ96iML4Fova79gRdsalq65GZmSJYSZJiB21795SaF2qpque7q96sopMhCYUcAmJZzkR0EfMc7zpMHH3zICEEkYJQDKeHKRKHtqwq4gAiFpdOFgo3b5EB7jcRr42gLSFOzI+IjZoJojkrAt+Gu6tQDQgFB4n0s/WTPtfrGOrsHuNwJICDJaIFymBFwpwQhPHDNCy+8MJzj8IF5C9bbDyUpjQWg88Iw6EteRT+ABJzzXXB/kJ+ZHOqSkOAsjGIFHX3BOKBvIRwwAtoGpy2eGYltpS8SAyDZYKAKoP7t/wzA95RXlsk2Re5qVWfKi4tlw9ZNer5X9u0pkP0HCmXTxp3S2NwuW7dul227C6S2pl5LY3o3IC+veVleee0N2a4S686dBfK7h/8kmRm51hYgZVtrs32v1xMl+wp2S1lltRTs26tE56CWt0NKSsu1jDWyr6hQtu85IIWq0h4orZDS6jojMl4V6/ft3SXbNm+VR5551maTCPLB2CUR+CNGxy/ME3tXfV2t7N21WeuzWQnNFpX2y7V9dcxrf/UiAAwVKPB1131QHn30nxY7L6idMtZAQAkGCg3NoKAxCJqBgQj9OxJwv4RgIcoRqmmwpbTONF4Px2jZVyfbyvdItaoxNr3nc2YCXKuy4/DjMX2KAQtAFKgL3lXtre1S0FIhB7bstXsAdWaAJiQeehfWoQCPN1QdVBvqgAQAt2MOfKxsASE2p5y3WsSvCHoEiQDGP/qQvuQ7IGTM2KAS0EYOwSV8W6zlZaYAGwH9jNsqRlTCtE2dNtUIMXnQsxmgtPdwYeD+GPy7HdE34n74J3XF7ZZ9ABKUgCUogYvX38mJyfZd8dr3rFtISk6Q2Pg4PY+XpIRkiSOfiuH6qPi0HaJ0vLnxH2Bawc6glUs/8yoIP3Eu7B06pnApZqVeEsbC+ERJTkrRI++KtzzsT4itAaNeKIQdwafJcUhiRonIS0Edv6ROTR3tncrwgioBEPbcJweK9ktZWbGUFakKb+K/4oqOvV4EwDj/NR+SF156QS675Dz55a/+TwIRXHWsgECaAI3D4IHjIhYSMeeBBx6wey7gSYZuDIGg0o5hY2C1hEHIfQZdXWG5NPg6pKGlwWY16DQALyi4C3PTriTgAkYdE1dVBFRFSIo9NdK0syx815lSNENLQ6NNW40WKGOaDvhSFfkok3diE2DwnHPOOYN+34hAKf+EVe+WuOxZOiCGt4hqNICnHrYGHLdAfiz3B1VkxkkIGwfOPa7DD/v+M3XorP6rtbgNBQV7LPhqmzIapn0xDOJZyDMjAZyP+gLvGwxYDuzx+BUJmP1RFUY5KxJBi44Xv44Dj9dxJAvxx4tbLXcdfZoZBBK/ucYCHMoJaTkejxPTENWZ8YibL0fOexLXWAcAA8QGgULi/AsxDWH1ccZnyJgT7+Mu79O/HgyleoyC8DKLxfs08R57F3EndDzrMGL9FcMJ1YHpcDZAwT7QrgzC6ucEBV1lsfGufO+7rDMuuvAC+cWvfifpGWyUoS/SjGMVEQgDEKIuUXcJw82UEVZOM1apPv7HP/7RuGMkuBtEIDJjPQZh8DjrCyAOHBxug8EydlaWfOoDN0lbg4rCLAzyOQ5H9uHauBACo5L6PXAsGAJiU5w+v6vugDx8/0PSVdMjVfAc7z5cuPHGm+Skk5YZMsA1kVAoF5F57969Vjf22T8cmLVwpcQt/6A0bn9OGoo264CIloNjuC/A8Q7sC5A7YarqzKIEXcV3xZbWpkaz5NMXEDC4P9wU8QB7GBtr9gfug6QgbgQ/HZHUNdwyOHfVFv3t5u2Vzy2L+5yH83fn4ajX9FnGmZXAPXSIfzzxlJx97jnyq1/9WtIycH91XzZ24O4Cy5Qf3JpKMC0GMUA0HGhxjLtiDJ0OSykcIhJc8Q/k5z6idKYSmrNmnix/2vq8ZCanKAVM0Hc5H+2oHV2Wn2sgv0MUtB0U+buUIL1WvLMX8gNjgfwAlnEcYCBYlAkB4DdWaAgiOvGll14azj06aG0PyUffe6bc/K5Tpam5Tbywg3HoBqIYE4WI/f8wkhny6XinP2ACX//GN2TlKavMy+9d77xUpkyYKMQ39eo49MC9uxNLzZEYUCWZvgynXnkOlYZbBvkifg+Yzy1Lf6uk0D+P3o9yJG+g185AjoUcXY4H9GMVI4xKjJEEAMIT7BEdGEAf4jcDHwMQIvj69W/Js88+a/ddQHe/6qqrTAp45ZWXZcuWreE7PYBTCZIEeZASrr/+ekmIiZOijirZUrtPrl1wsTSqVNCl/6g+W0G5Cz94DgTku4JNHbK+ab8897cnpLOy/+YocGms+BAh154wEsCn4bbbbjPVBmMY33zgQJEZ0yBIID/GTMRXvuP1118PPzkymD5vuZzywc9Jds1m+fn/3ac6pOqrqlsj+kaCe+YeGRbGI/SCyzT65unb+297GVzQPH3vA5YnfN9+kk/HNtGhUY0o26IY6bWWphbTxdloEzF58qTJZodglR4SQaP+ZqbMRZ7jFrT+TIHaSkaXAGCZXLxgnunbGelZUqMfzAwAjjAgx1gQAIJJYvUFoUE8dEa4IRIAFnp0Y1aSPfhg/6CZSA7M61ZVVcpjjz0evtobCB/O3PLLL681onXGGWcoEUiQwtpi+cNbT8mNy98pSd54aelsVWRzHICcb3H0r4RArLxWskX21qoO+9JOKSwucQoOA8YaNqpoVFHx1VdeNaQFkYkG7Fqs+a6hrM8YMZmzhstAAFBBIFoYw9ClsY+4dg4MoH03uxgusDHIPlWTYpVgEQERPbGxQlWrsN4LcFD108UNA3AlfNvucZNjBA4597kQ/s0MV+R9wC2DGwPl6VtG33oAqoYb2Pv196Bl6NEO+se958JAZTBllpKWIa0E5Ah1mnFNB4y06PjD4MY4hPG5Eh9FMJ5giP8OAAGL07Hc1NAQERVYB2RuTqaK4NlSVl5irsBPPPGMzVmOhQQA18RhgiNIArdD5Hfn75EGQAb08oFCf8F52bWX+O8gC0a4vgEgiCcINceOcPHFF5uejUeaT0Wg5tYm+c0bj8qs7IlyxrQVEmprly79rs4O5bqqh9fp/X8UrJH46AS5YMrJWke/vLR2rTz11FPh0p2YhdgjIuPPg6h8E0gMgThU9JpbbrnZCB4DDCsvbUkZID8dA3GE63DEo+vpp58ZNLb9UAABqNB+TEhMtlhwPmV74zaAHsjMmSDZk2ebdx9OXx6VCFsaG8yNF+cj+gSACNAv4IAL9N2RAt7nvov3Hol3US6bsDRHEgBUAKYTzEcYxEAcZTWc0taxIADs0sLcOVMpIDocn49l2geg0W+88QbBH/yDH/yghZ3qCzgDkVzbAcuFDxzYrwiYZ441lMXaciLBQFwQ7VlfjcUV18tga7tsOLhd1u07oN8QUM7okaQ0v9Qo985Oj5Ll2YskMzZVWjtVVVCyHxMddtjQdvj73x+TG264wazdX/3q18I1GhlA7P7jP/7DjJwu4eM7aF++l29g74OCAkKIMw3WJEVFB23TkZHCXCUAuKEmKgFgS+iAEsGivcMLrfWBD3xQCd+T5qMPYaN+jAeIs44dqxv9hwrUV11zgc1DMXKi4tGG5D311FPtGyGgzOpApFn7QV/R/9hvCDbSF9gHEo9Jpw7Ou5G4ILjUjXHEvX/+859D7gYUCdm5UySQlKG/nMg/ovjeompBJAGgXFybGbNIehAL1s2Yyqjv1c7rHr9jAXxDSnKyzWjY+Na2o21odKYZxwoGJABB1cPZGwCDWKciuBnMVHT0+x0j2eESAEJ9MwMAR2ZguzowXmAMEJaBfuEL/6md+IQOnP1y993fCj/ZG9CRkQTYYAN1oS+wHxyDDS76jne8wwYsvuY/+OEP9Buq5aorr5aPfV0JT05Q6lvb5M31lTLNE5Q//GiOcssOyfY3iTclV6JiE6S8rMLqhb5PAIzzzjtPB16z6uVvjEr/Z68Douaw3RWDHeKOpEEnoxrhK8+AZibAlQpYLPO73/0+XMLwwfYFUAkgSQkAq8HY26F4z5bw3cHh4osvUdXjoBK9aFWp3m39BbIx6EFC2pP5esYHg59+IlR7X/iv//ov6x8nHkCbPQfhAJnxCGSwf+9737PVlBADxgPfTttEAj4jH/vYR7U/neC05GH8LVy42FQ91DAIAu31ox/9UFavPmNAFbIvZOUow0jP0THO7kWO5Nnc2KIEILGbAFBH6rr61NO1TYptHv/kk0/SupZLvda5o6tTHv/H4+Y0NhaA6nHVe6/U9wQVN7KUme03FTwxIVH+/vhjNvbHAiIJgBMTMHeSnbzn0ou1gT2Sn5cn2YqcEydmWZwzv5+dgZxwWqNZC8DKL6z7DHrWwdNpID3AR9HYICziPVT8po/cKD/64Y/sfl/gORBkMCcRgou6a9GZNmR68Vvf+pYcVE6K3n3u5amyvbBVfnxThzx/b0DOWp4nV639qDT6J8u2mLnyiP9M2fzI76SjdKP87o9/snlu2ytOVRQGMrsUMTBGA1//+tfN533NS2tMxMcHgUENgn34wx+28t31DnQSCQ+60QTFdHYGajSVCCMri1cahrEWgHpt2LBR3vve99qzfCv1W758uUkjSAS0BdchCnl5+f1UMQApjLwQEL6LfpsxY7ot9YZ4Ewh0+fKTDYkpi3wQgb7qDsjPsmGQg3y0xZe//BWTTnbs3GFSBkQBgICi/g0H4pQwBmKYGQqL3do+tBPSJd9FmSRsYevWvSEF+p59ygief/4Frb+zkGnnrt06fuPMpgCBc/vsUMnCdekRoP9doL3eXL9OSktKTbIq2FcQ9ok4oP2nEgmZ7NnhvMvNhyu2c413ue8jfDj+MU7LKUTpy/fs2Sebt+2Q5MQEeeX1V5XKsRDj8HUQdzWfg/Qhsy8QCowPhsNyHaLA1BhSwZzZc5wHRwEMgjPOONPsBHCTn/70p70khe/c+YR85eZ8OevDE+UXb/jkWwcWyxW1m+U67+PykajH5due30ngA9+Rl/c5HJ46Qo1ZwMMgHAwgYhgVBwMMlBAtFoNUVVfboIOTgkxINL/61S9twMHNOEK4kAC4PxbA0ujhAAgG8tMfSCa7d+8yAnr66avNSxFHH0f8Z71+q8VrYCl5X4CRUH9CrUGQQVgCiDD1xpZdtMUnPvFJWwXY2tZu+SAAkcA4wUBHH7htc+6558iTTz5p6sQ5Z59j44pBzQBHihoumMONWQjD4zuESO/8dIE+wmU5ScdURlaGpGVkSk5uru2qk56VrdJrmhBJC49A4mYMN7FkNzk5Tds4SYmaI01Tf5ghPvtNymjzJuRLmkrMqZoCqorGqhoSp/f7B/8YLJHPSckqhfFOmCLviYRuAgDA11pa2mXfQe2IkEc6tdE9wxw4Q4GjM7LSSvVuFXnx8mJVHDo1xIEO5B4GN7wBcUcerUvsXXfdJf/zP/9jjkJQ6YE89j7woT2y6NQWueeDB2XdtgUyL26H1HhjpUFipc4bkBs6/izNy2+0vAw69ijEOo+YOBi4XGwwuP3222XNmjUqveyxmQ/aBMcnZkKwK3zta1+3gY2YDdAmIMnheBxGQpjwHxIYPM56ficmHojG3gbvfve7zDeBcrCJoIuDlCAJsy19Aa9NpIna2nrLS3n0DXv4sWoP9QGRHWkO1TMmJs7yRwIxAuHGSBDUC4IDcf/LX/6iyJ7TPZipB0A+l8MdCixX99BWwm1TCr2BcpGiiHBcW6NSYEuTflezpVY7KhEcYSLCFkZZiArqRii8Lh+AEeYpgbnuuuuMGDrPEBSlxY59yzpkUkLiSMpeYUkwxueBCYBeQ1RISIyV01YtlaR4n5x6ynKJ104ZAwHAdCoGuyNaOesN2ECT/d4YWK5jD0gB0t53328PyyceF9TBVASgsbxL/u+bKg57EyQhpkHFP79ZyZnvRVyq8iZL+4HdkhB2L2fA3nvvb4Z0LT0UYLxcuHCBETmLKafcFW546aWXmTR0xx13hA1mndpGTsRcEAIEGQvAZXU4gAQGwppYrJ0FoUYFYHqVgKYQukjkh0ASMaevMQxkBSGzszNNEkAyo094Hk7NSkDsAzNmzjBEgqi4LuIAxAf3aIewOjvptCmh4Iir92c/+xl5+umnu+vBkXx9B/iQANc3KuCm3kBZ2EK2bdtq9XGQ4fAS/1gnwBx8k6o22FJcQNLBiP3Xvz6i0oGqJzoOIGiuA5udjyTpM7QLfg1EAgpq2/UlkPZ21RCMM7+xbpNs3LRTNm/ZrcftsnnTFqXcdOwIGnUAYJ4cDsCgYK83fuPggj742muvmz6IIQgbAbEAiJ3vhgI7EpCUHC/LT1kkrdogk2veksc9p0hGqEGSQi2S7muRVwKrlIo8J43h6Xys1ujFo4UFC+bbwJ0/f6ERJwYTCYs1cQj+9Kc/2zQnA5lBRydBHCCYQ6kdI4Ph9SEOWdhp3Hqgr2O4YyCBuBAmEBtpiGsk/MvPOvuscAkOINmB8CzsoTws2+T99rfvsTbAqIqNYV+BE1aMMpA8XFi9erVdpw2ohyG2JnaIuvfe35pk8tBDDxnSA7QdY2j00BsxXCAoDASQqL/sFXHYKSZgbceaA4J80CYG+o1sAcZ7OtpVeoqNtn0DDi8544wxZlKLGVKd17lgC8V8Si3YlQQRh4UNWTkZqpc12/7u7OpyuEAnkljww9QNv9FNnnzyCasglmBEQwYpHYpd4FDr/w8HmNopKNgr0Ymp8sHcItla5pX/6XqX/Cp0vnwpdJvseP6v4qsYu3DUM2fOsuAYbHjBQEUiuvXWW2xgEfQC5AepmB5lQOAWTTs9/fS/wiUcPkTuHjMUEIEJxIUbIf4iqdAfcGMSkgCiJbsc0Y/YPaj30iVLDVEBpDcIAAQD+wvBLDiy3fe8efPNoEg/49HJdyLeE4cCyfDaa6+1KVJH5XKccUB+iAFI+q53XWZtdNZZZ5mNwInag7Ex2CtgzMiAevcnkHwP5SLlwEVZITomSSVA2qyrq0dlsb/6Xewj0NEeDOfV9x5Oos7aR9QfFVwFXPdN3WCzAGlZebJUxdOTli2RjRu3yvSpk5Tqny1Z6emSlZUhhUUlWpjqIKOcBQDgZPgBIAUw4FE5EOXgKEx1Mff/yCOPWudyn4pj4R1KlB8NsAT3oosukvPOO9+CUcxbfJJcvyxW9jz2M5nhPygnlzwgL//lN/1cVUcLdDDz3QxkuBeDFpGY5c3lFeU2hQQRdkNqIQ4z5USHvfLKq+FSRg59ZwGoR2PN8EKbMVMBAiPqY5wD8ekHZkCI2V9cXKIifZKpLMxS8D3YLnJynEAn2HEYK3B/R+prVUTqtK3dKRsJAER//PHHjCkwQ4TNBvUDQoHXp2McJkZAq91n/GCcxE8ASZG2hBjRrhAAJAxmI4Y7XuJtFgD7E+HiDPcMUZBOGXsuZ6bdjlzqEf8BUHPgfGOTnDc44M4CRKVl5nwlPXuibN2xS7Zs2yExqssVl1bIho1bZF/RQYvuCqIebkgwjF10bHV1lVF9LOAgP7ojDU84KIgCXIOoqgxcOjjS624sAHfkG2+80fR66sS+Ax5ftOQroWtSzvvDXw28Cs+tZ19wGnZwYO6f72V6a6bqu+RHt0ciYEUkHIYBZ4uQlJuh8yMKEyH3cKDfNKCS/+FMAwJwcBAZWwTc19HFnS3VuMcMC1LKO995SffqTQyF3HcDedJeWP9BUJASEZRvpi3gfsz4IP2A4BAQnuVdeFXiCUqUHIDIQUwDIiVAsMkHAUCCw2YEwiIdoDaOZN1EfGKaEoB47Y+hCQD9wzdwj2uuanSkAEkQoA44Gx2pd/WeBrRB6eweon1uO5OwNzvBD5mOGiu47777dADlm4MDRkG4DBZOwkQxrcTUE0CEExodUZApo7GECy443+ZY6UjEXAYqg2nRsmUSHMAS7MJgnIVyBgOcWCBoDB64GxyN7wIY9Hj8gQDOjECbcUa8GtFtxx6GP5BAaIgxhqSEeGfTTqYBmcqjjrQZBIFVo7hbz5o10yzzTCFyHYTku3gnqh7nqHoLFyySgr37paqyytoDxyp8RLDsQ+zR4YnbQH+kpqaH/TgIIEIkHK+sWfOSSR1IT07AEYy2Tjgyoi2PNVDviRMnSaYS6kWLF9l3p6WndffhWANtxqK26ar+rFy1Kqy/H5l3uWAqQHrORHNmGAygQmMVFBTusXLlKSb6QQDAH8pHGuCDofAAjU/CoQROMRbAILr22uuMEzF4MHjBISE8TE3GKwF8MsL3/3AA4vKBD3zABiffx7cCDGiQiPs5OdlaJ4I3+EzdgTtu2LDeZkIOF/qrACGVAIaHJNgoZs2abZyWVXFMSWG1RwWAiEEQIIioUyA5/cQ3IabzfQQ14XvZKQg/AtbVE5Zq09bdkj8pTsuLksqKQkPan//85zY1+t73Xm62AcbDb397n0mIvIdZGcdO4OyhgOTArJETSp258zjl/iUm0Y3ECEiI7kBsgpFF3kE/0E59JQDsEHjiQXCSlDgRNwNm5TBm8GC0yYFIDs/34fKLHYD2w3PWMZ6SZ6AyDpVccM9RBexCtwTQay3AYEBjjMVqQBdo5JtuusmQDms/VB3qh/jIOQOKd2IbCARiTCXo6yI6GsDYeOedd9p7mN5BumGtAHo3EgkGry984Qvh3IcHt9/+SRs07JaTlIQHJNNnKoYrcgEO8QuZrstyYGIYYMRCFRoLYDFQebkS2bArMCvZSvYe2hXYBVQX1ACIE4m6ojJBDLDRINITSBUpjXt8H33H3D3EAM9GCDq+A1OmTpF1L++RH7w4SWLloFR2+OTaOXtk+97eIjvtg6s0tiJUIQZrTU2dIkanSUwQApblQpx4H++ljffv32fS5UggM2+ixKflmp9LMIj9Bb+LBv223msBIKAA76JCjMvDXhVoz3dKsMMhphAByufIjsK8l3UHRBMilN1YAK/EBR8iAPRyBT6aEgBA50GxmcrB8gs3gds4U2FYe9HLnP3z2HaZTkESOFx7AG7CzjvYHjne1iFA/RlcqD9wosMxvLmAhR+PPwglYiNjB10S/Y5zjFYO4sMFK038ZY597dq14RIOHw7HBuAC4jlAe/EtILTppioV4B0Jx6XufAuc+LHHHpNvfOMb3b749DNTwJ06yPOmKLKVB6VqX5dMmh0tX/tM/yXdIAFbgeNui2qBERLmAOHhnrtuBImNc+oFcYLAEUdiJGBGwGjXCIgfQX8bAOPembJrMYTk3UHNQ3v2SuzR5/7WZ3ud902q6oV0jHuEacFo5fY9U4F8V4NKUaFO3HcdIkCdBixnOEmZOt/i8zNT02mbhmKXAfq5Ah9toAN//etfG9cF+TZv3mQiIZZREIYBh+gDp6aTGWh33fUlyzsawLsKKYPtx9AtUTWginQylm3ErUrVTQ8HGKAf+9jHwkjHVuuIrc7mDxh0OIfgEfsO6QfuhRstYjD1OrIwMq5F/UBw6ghguMMpCMmF79m+fYdy6ik2XYuk8PWvf81UNdeIFQmvvv66vLHuVTn71Qtk6v3vkW9/MXwjAlwkAFh7cc8991j8B/YMcHwO2E7dWf3HzIRjY3CIU1VVrf0eOUS2yQDto2PDsYXwGw4dmVgwZ1n0Sfdf+N4Q/9z3MLa7wm7ALuCuTRm2PVG/pBm6Hw//0Hc5Hox2cVBAYLe3U9k+zPttkQAiYc+ePab/Llt2klFaxGE4DQkiASLBAZYvX6EDwWP5cI+FcIwEcCxhsLAqEWtyamqy6dpMVTGAITBM0SHG4qQyUsBdmHgHIDniI0ZVJAsQAmLTobozuioEAGCeG1H597//vVHpsYbDsQEA1Js2AwEgYjzPtzFNx3jAiw/JDKT/9re/HX5qcPjB++6QuKAOb1+bvCL75eCuPdLS1vPd9HVfwBiKfwiSAGOOMUEf4iXnqiXYklDlcFgaCfSeBhzYBsC72MDD72PHosgUE05syY3Djrs9t/62vO623T3bivckJ1IwbdjV5WxI4yAmiMruWPptli/iXT5Nygi7y+R99s5wHjvnyL2IZOWgwhEmzNNNNAFXAnjbCQAA4uMBCKIgdiIWo6ezEASxCE6E5fd97/uADgK/LfMlhDi+9YcCFtpcdNGFNvvAFCCGLDYgYXAhnrJTLdwfFYOde/FKvPrqa1Qcf0nr4CDrUIAOzJw2UgUIAsFi6SqITkJshKOBOAxa9Fu+jWk+iN+Rgn4EQP8N1w/ABQgafU8CCRHp+V4Qg2W3TAl++ctfDuceHKZMmSZ3zHyfNLY1yobQQdnrqZeUSYulraas2yZC21BuX8DdF+LqtFuFSYS0KUZckBajZE5ujrwwQttJbwKAbu8wG5cAOEjJxjE4aA2WBhLP3XuRvyNT+LqWizqhL7J3QWhp3/75IxPPRr4z8npkvsjrqAHOub7Evon3uQTgbTECHgowJEH58YtmwDGVhnpAZ//whz9SHfFZswIjukP5H3nkESMQIBSDA79zODnWaGwLDC6oHxZVOpgNRuBcEACAKD+4u4KUuODimz9/wXyJV4R+8831xqkxROIAw+BAL8WCjzRC+XAijvff/wdF9EoTkWlkOBOiM5wLZxY2AxmNdDEa6GsEHG48gEj4zGc+YyoXbYpUw3fSlrVKkNk665Of/H9a9sDTo3Ar8vPsyXMXyb2n32Eh2tf518ttWTdrjihJzMiS9B8uln37i40A04e8B0SIBPwQ7rnnbnnjjTeVIeBfwDQjUZMcdRAuN9IgLZl5kyQ+JVf7qUvLwwiIqsZuxq4R0G/BQYgBMBiw4AYiRF+jolg7afswFRpQrsuTkBFUGPd3DyDsa3vqc9VK2BKTGKcq4YR63LC78ynecs6mqbavpf6zi9xV3Ay2By3oKyHHux/rC+TXvB2t7D/YYLMg/SICDQZHmwC4gAUZpxji57NtFFwIi+/Xvva1MLVsl1dffc3yIMKDmHiolZSUKbIfMITFwwyJgrltRP8bbrjeOor8V1xxhakSTHGRz5lt+KVZoK+55hobeHicIYWAxDipQFjgVBACrOCIwhAeiBAivtN5GHQSjAPPmDHTpBviHBxN6EsAfF6fHNwzsvUMt956q6pIifo9XiOgDGzaApGSKb/vfve74Zy9AaKN2gYRoJ0uvfhS+Vr2lTZQn0x4Vf478SqpkWSRQLKctu52WfPEY4bEIJ+rIvUFVo5OmJCvdXDGnkuUXMJEAJKRQGbeFCUA2fpt/QkAdZ88dYb2/zTbcEM1hN6g/Qvhe9elF0qxMpWukMdmRxbMXyAlpSUSGxMnBfsLJF3HI1y2WMfjYJiJz83LLz0jp5x6tkUb6tLCnZwu4vNylURwt164wLxHYWKI/BRZXVMt06dN1f6ol507CsyVf+A3URZLqtvk5TXPmNRLTMBjQgUYDPAZ2Llzh6xYuVypZLWpCnB9VtRt2rRZEa5YZs9hY8nJRhBQFdhRFpEb6YGlqBs3brC92mZMZ9VZs1mq2dMNgxKOOkx3MbiZHty2bbupIRAUODVIj6iLowtefKgkDHxEeIxkr7/+ujz++ONGJOisKVMmK0FRZFMEoUz2+/vv//5vkyCONvRVAZi6GuksAFILe/eDGBB9Z9fkLvPDx2iJRDMQuLomfTJ33lw5G7/92jRpVQ72bFqJnBO1T3YHMyStq0Iy9j0p+wqLjKiicgzmA4EXKdGeWD/g+Iq4YrMzbpk9GAk4KgABQVABjDlqOzkqgO1rqMyGCME4qiHFsVs27UjkLGY1wJeDhftthSJ+AZXlFSZhItpj+2k0G1WX1FRX6XmLEhnnOd7hHlEBKKewqMCZKmb2IOiK70pwg8TJdN9LUJVWHds1WnadtLc2SZv2i3QFpUqJQqWmds2HZMS7HPG/d+I6qxDxxo2NOYZVgIGAtQIsaGE6C12bwQW1josjsg6dh0EJkbPTOtENzkFDM1gAjCJwDqZCkBY++clPWqf94Ac/sEHFcwxEElyFZ+EwnEME4VKIeojB3INTUB5ho/x+RNcukzqwlmdmZqi68kN779sBc5efbUFBR+sHAOCFSWw/vpE2gKgyFtjV6Gc/+5l966HgtNNOldnLF8uHyuaKr7lLHl5yUFqKqiXJ22ZBaKISs+Tue+6xtl2wYGG3tDYQ3H333TZ46Uf6AIaAlAFR/v73vx/ONTzo7QfgbF7q+AEkGxHHus6qPNisR8ddb77qMECIvlnuSfo8F8AMDwNSx40NTG0vRqL7PH9VYDDjPUeeYcUtyOg8bZcGBHcc2m3NFJmN65bC54MB3+mLCigBTHCCoR4vBADAWwzuCmem8zEIMhioH6I4c9EMDG0dQ0ZXl6JBmUEoKipWVSLHxFL09BUrTlHx/E17HgKAhEN53IfIcJ3fzj28v5wgHVB4CAO+/O40GZZkHHkI6okFHd/4txMig4KO1gaAmHjzzTdbOzL4UHEwyGEnIbyZa8AbDPCEZIalGLG4yy95aZmyuWSPZGVkSlp6hg169kB45pmnVeLqMeKB1A7h7g0QHSQEdm2mf2lz8jIrNNxQYC4YAUhVAqBjxSEA9K2zHBdd3BBMMVS73MbPkQMKj3yBEpIjCoq79lEY3xvfPj+A0QDr5iE+DEgQkGi/DDBUAKzDIGetiv8QB5dacuRrEV8xIDkegNE6uDPk739/VO+7EgMbU8aHxUsHeJ4BhsTgLNbBgSjBOCBqAs8wENH/tm7dYmoCBOXtRn7AmIvz02C4AUEiAVUHAgghBCCKtC0ST1/kj2w37Ct49OF5CWSkpUsgNU4qpVnYmtpWeyqxhYd1qQ7epGJrehoReh1nGBf5af9IwDkI+wKzMzACJBP6AMlkVGABQeyHJV5nIrzq0xDNlhaO9XY8con3NEakgfKMZWqUZvs2RX7t12PaBjAQoAOykIRpN3RcIrSig6GnIfYjnDAw4MJwagawSxBQGxDbmVFg7QHIjGEEwxPGQIe7Y9V2vAMRLbkG8eA+AxOvN/KDHETDraqulNycXHsnqsRA4czfDhgLGwCAFMCMizmuaBsiBWD76Bu8k+8HMJRCHPFzoO3h0jFKYGOjlWtrPRobmpy8inud2mfV6wukSVWCqSfNl13K3Qfi/C7gss2sBASXuoD8zLQwm0O9RgJOUNAIPwAdBxB6JDoQg8TYcI//Tsn5Joe4HlcSgAvMDRPskxBdiP6IaHByi2YTdqwA2RkgfCxiPUgN94fDEOgxQ8VQOBrcH4ICZ0lNTTGRlGvYCPB64wihQLSHczEliX7PrATn5aXl5rV2uMt3jzQMNyBIXwCxMB45hLDJVICrr746fLc/QDhxaabtaPsYbfOK5iop07StcLfUdDVKver/9Upc85sC8sWpH5CPX3y1zFkwN1zC4ED4OBCfPoEI088Qfoj6SIHWaO9ql3aMiHjaeTWFekscJwIcVzaAcRg+9LUBjMYICEAcQXgIAAQPByzg05/+tHHjgabtMK5aEA8lBr6WoPxpz/NS5qmXQFTAFJGGzlb53EkflrScTLnl5pslLiVJ0uNTbG3EUICfAEu5maYF6XFECioB+N73v6sS38i8KVOycmXpijOUCISkYOdWCagk0dLUaqsfTyQ4sb72hIKwtTgMtvvNKAAPRscG4kQJxtCJ+zJqFesY4MZITwASFVwZj8rf/e53UltRI8+VbZIaX4sk+eMlxusXn6ZUX4L8fOtf5NbbbjNWHGrpOCTyA1/96lfN9Rf1jlkX3lVXT4zCkbtSIzWy069XVSTbMNBQ4e1Tbd8uGCcA/6bQG/2B0Yu3qFrubAtEAEkAYG0+nJjrALo9BloMp1jrf3//75VwxPUiPm4tokI+yV0x035DTFAZcMMeCog/ANJDABISkkwdWLv25fDdkUGU3yfbd2yTPVs32nTk4bTP8QzjBOAEgZDt+jA6wEsSZGMqFGedVatOCd/B9sJqPGcVJS7Y2E9Afq7XN9ZL+Vu7JCYqWt/OXLoDzFYTojp+WppMn+2EAsfIympKF7DVRAKzDFdccaUZZiFASBsQgsGckQ4FDHy/qiTRTPkBWt8TkQaME4AxhMipsGMNDmcuG+SE8wJ4QC5dusx+9wXUBZAS/R+ODuSk58jquDkSUDG7o6tNOowUOMSgtbNRSvf3zJrgTu1KFxhwIwHiw3oB7A6OYdc/qi3TXLCvsTYJN0z4+040OOIEAO+ugcAVG/+dgEVFIwVE6vnzxzbuoQO9B/RobQAABkDEe3wvQHJiKwwFOApBNJiqnb9wgRIfj6wMzJQFbdMlqyFbVPOWULBLTklY2AvReYfrXxAZ3svNw+YpjBtmeJjaHC33d4D26JFJen6fWHDEsXD+/Lk2TUbwD/y5XUBE/HcD5sdHCsyV49swGLAgiq3ORgp9nVcPR74FKZmfB0FdH4hDAXshwqWJ8Pvb394rJcUNct0np8p/fS9D5tTOltM9syWxxS9tQSeACFOtK1assAVaH/3oR22JNcu4WQbMewGiSIH8SFotza1mEBw9RLbH6NvmeIejOg34/ve/35bo4ut9//33vy2LZI4HYCn05Ze/R0XpHBWL/yKPP/6P8J3hw5zlZ0nVYboCu4A4D0JyRAIggpELOP2cccYZ3cY/fCTYAIS4Dj/5yU/CuUQmZi+UjaXnEwpE9u1ulZ/d4pOsCYm2Go5ZBCQhJAeIi2Pl99sMA+7dxAG87777zAcBIgH3J+AoTGW0YMuBzRW4ZzUgi8Vc1+4TBd42PwA42+WXX2463b333nvUl8sea8CimyuvvEL27y+01Y6H2x6HGxQ0EhD92UsBkR49/JJLLrHrN954gyxatDjsJRlUpI1SicYJhQZBePTRv8nLL79iebUUqQ59Vgpkr+SqEvDTr6VKY228xMapFNDmrLfATsFGqYj/GAFxKsLVG+OiyyyI6/ivf/3LDI2HE1uhf1DQE5MAHHEVYDBgrvj66683qYDBghvtj3/8Y/nEJz5hobn+3QF7wRe/+EX52c9+attvY1zDyk0QjiNBDA/HxoXYDRNguo5+A774xTtk0qTJphI4y3+JnuNsnoELMnYDdvIh5JoDnfLkE7Wy7c9e+en/ijRXp4rHy8yCw+15B5FrQHrcVQGQEdWD97K+gCAuqAq4Jw9HDTkk2Pz/iQ3HxFoAAmoQlIO1+uibF154oXGc1atPNw4AR8AH/3gGltayOo6Ensu8+gMPPCB/+MP95to82BLY0UJG/hRpiVgLEOXxSUNN7/33RwKI3nBiQqmxtRqxDrBfABbxpsuZZmSswMkBouoQswFdHZTuyLxavrnvOllYsVN8gaBtCArxd/V62sDdWATDH+Uyrcg9bEaoCowVzpEIWBMwWugfE5C1AIQCe9t44tsCx7wrMAFACNeFSyoReMrKSq3zCUgxJlzgCAALYtgfj/j1LBmGG7pE7nAG7UgAFaAiwgZA6KmDe0Y/bcY+Dmzpzm5At99+e7cvPohPpCYHiSAATjBNmAQrJeHg3/nOd2Tp7Kmy6X1PSrC5QZa1r5dVzc+JPyHDkBlEJy4DkgPAcykpLKtu1XtRFoUJgFhAdGhPwqizF+BowVSAlHytL+G+neXALS1NJnWcSHDcrQVgnhhuigiN44gzgKJU3y1TblNqK8NYHz7UqrKxALghrrCIphAn5r5ZYcjqNJanEs2IeIVudJyjDX0JwOHYAICPfOSjhqgY5jDYgYxEtPFq29P+WOq5Buc2iUOJAt+Oj/0Tf39UcpecK49m3SCermZZ4NkvJ+//nXiUALBEmwAq9CvBXDD40Z5IArQnZSL2swTZ8UVwovdCTAm1NlroTQAgYhCAcSPggHAsEYChgNBdOKnAMdj4A/0TIyOA+sLmCHQyxIFB5XAcOt6JLIO4TKgWduzlm93BjuUbwxbPkbZt26rXo21JLIg+1uL7WEBfAnA4swAA8QHxV3DCtiO6O+OCsQACgaicg6QQBNoTqz7SQLxfZG3LZHkx6Vxl40FZFtwhy8ofkcZOv0lISBNJyUlSrtIR5TKTQGwGov84G4PGaF+km7ERKQTDI1PLo5l2daF3UFAIADaOcQlgQDheCMBwAaRmkJLgWBADBpdryALJEW0ZjMcr9FcBRh4U1AXa6LbbbpPLLrtMHnvs74acAMjN2HCAEGpB09lBfvZ6oJ0R2XPSkuSx2jxZn3yx5vPKO9v/KnEH1siUGXNNNYK4sswaAyCSFUckOhATCY8yKYdwYYsXLzLp73vf+775BYwWBgoKOj4LcIIAgwmuj185i1mwwEMAiAWH2IoR6nhGfqB/9Uf/QcYAqioVMUEQZ8i4EgBtRYKYgry0KS66HLF30J7+2ASZ1bpdrox6Rq6Kflay2sskyh9rjAR7CUhOn7jPszIQwsXSY1QsymDpL3kLCw9Y8Fbed3hwnHfwGMEJSQBOBEBbjhziow0IAiARIYI/8cQTKi0RJtwpnSPcGf0du8ff//53YedeHHng/gDcvKOzS3JSYmV2qEDmewol3tsmXn9Aig+W2AwBnBcjIMZdiDGbuLDyjwhPcH0n5JsTCBTCg3p3+KDt4R0nAuMEYBwOCY40FFIxHeNcj77PEfGd3ZaeffY526mJOXpmajACQiCgFUhbtXX10h6KkpKKGklOTZW42FjbvJJyQW5sKhwpFwJC2Swl5hoGRhLTwa79wSFChwnj+H9sEwB0yXEYGzicxUBgiuuUA2KCfBzh/P/4x+MW/IN9FfAQBGFzcnJl0qSJZs1HFkFcJz9HRH2mCiuUswMTJ06yBD5TvtPnHjOw7tq1Q59jV2K/PYsnIoDtAcnjsKFXUNAxICjHIRzTBABug97HLrGHr/O9PYDYOibc6rDh8Org6PqO0w7IDKdmZmXdOmcuHr8M/P8R+UFYVuqRF/2ea/TjqlWruvdG9Kt4j7svthc2b4HrY3iFQLCxCxGIpk+fYYZAjIu8E+KApMCRKEVjB7TNOAE45gBKT1BKBtNpp51mU1EXXHCBIdWxDAxsHIFOOukkE10ZvG83hEKjDwgC8A1swsLUHgABYB9E19WXmP0PPvigqQQgfmZmlnl1guAQAKL9oAosWrhIklOSDbFx/WUKkBDf9DWh1/H8nDN3rh6nWt8zQwPxpx1xDOI+NgAcj8YOsI+cmPrAcRMWHOMS874YjXClveCC8+WUU061AUfEmrcbIEzsWjx79iwbtETGHWmo6rGE/tuDe0a8O3AkIH5D1PDSoywQFmv/smVLzXWbrbncLdjh2OnpaUIUYUKqI8EhCRCOnWcTExLNdwLCEDkDwDu471VufLD4oKkSzM+jGjhEgD0ZW5WQtNo04+H4X/R3BSYeQYeeH9M8cczhuPcDcJbOXm6EgOkiBgbzw4fjJXYoYIOKk0462XRcxNHGxgZ56KGHjUgdK9B3NeDhugKzUnHevPlmpccZhz0R4N4gcEJigo4PpIEkFe+rbbzggAWCQxCYzuOe20csAGJv/A0bNpqTD0QF706kDAx9EHlUBVQJJAVnmzd24PUosd9nhIKVgOzJOFrIzJss8Sl4F+IHgCswxspxT8AB4VgmAH2BgcfaATamcDa1yFYkjbaBxVQTBAIVggFcWVlu3MrxXw/aFBeGLfYaYOcg5p4ZuADSD15piLQYqFiSeixDfwIwekcg4KqrrrI2xVUXUd3ZoHWTrd4kOCiiOQgMsppHpUqJLPPFbx8izVQefYB+j9qANMCuz3V19drmCbYTs2vtJ+w370IaiEyOGtBmBkBChLN4bLTQzxHIG5KW1nECMCAcTwTgUABRwOuMdQTo6gwmBhff1NrabtwcIxWcru/2V8cT9CcAKlYfhiswuygT/AOOT9s8//zzJpYTtQdERoxmg0+QlHUR3HNDiZ1yykq9x1RfQLk997NtMQ9ThTt3bjdRH+mAcUZf4FPghhqnDNYBYCBEGsBWx869xAN4+OGHLc9oYEBPQH0XaxtOJDjutgY7XMAQhW8/4jqOJ3BzJ+2wcwYfzifopcczZOazZ3yDxCg3ZtvoKMWchsOwASxevFg5d6IZ7GJiAkoEDto11CCMeSCvszIwyq5lZKSrilBjnnxIUxBaCCvehEgBqE7o9+zwjBTArkwQBEeCiDVVwe0HCAbiP5JatBIR3kE/sthqtBCfmNJ7e3DFexY3efQ7TiQ4IdcCnAgwY/GpRrCjVPRvbW0SNuUsPozVgIjxqFcgMly8vr5RET3DEBRCwxoK9H2Mee5MANwfrs9zJH6DvOTjHjMKEAJ0fogGjIbnQHYkBlQGJAAkCsf46MwMIQawT747BTkayMidInEpGcr42EpOJQ8lAK24Op9gEsDICcBba5T/n5hTJscTTJi7VKZNnSE7tm8Tr4q5+l+KCwYPPnqiQXrOJMmdPEtJSYfFF/T6vEoATrytwUZEAKo1Fe/eJO1tLUatx+HYhC7lolPmn6wDu94s6cxzI1rXHtynAx0fihObgKOqpGTkS3uXqi0qzdraApU6TlgJYPaSU1X/GVznxTJaXV0hJYW7JSY+ScWlY9sR50QHtgVrb202kdlxdw2rbKq/q/6mP+yGXXJgIGJ+qPvAcVqG/u9SNQbwKgGAwaGSYHfg94kEnkkzF4amzzvZFmb030/OabooJQBVlaVSCgfp1UCRjd3/WQfcPIe6D/y7lsFv995Y1gMYKA/3nTwhj3s/RKwTvew+y9EuhI+R5bh5+oKbZ7hluNcjYbAyXBhNGX1hsDIiyor0ztQ2wSDZ1NjYLdlaTs3CqWN1GADcIvSmW3okHCtlGAxShmcqEoCqAFhAhwICPEYhPtrLIt7Y/cq+r3bzuNA3z2jKcOF4K4NjmAv3AzcP0PfZyDIAzgeCo1EG4OYZbhmREFkecKj7wHDLiLw+0jIUDOlVEtBjSH/2ekLPsZ/YMXyjbzBh99S9P+oy9J5VRY/9ylBwHxm0DM71PSMpo48NoG/23tDj097nzf2AfIfKc7hwNN4xVnCk6zpW/XK02nQs3jOcMgbKM9xrzhXuDAbuE4fKM+D9gV/ZGwbKE3mt7/1D5Xch4ponZ8qc0KQ5SyVo894euz5QuQb2o++WU4NBZCndJfQB921DwUA1GggGytO/bCeXcz3ybs+Th3pPBIQJYu+3hJ/n4LysF3Sfdj80/DkVKDv77EWCUXugmzgr6EWXWHM7pOdsgMF11tDw/XaX8ixHZJmRv10IlwUbs/e7Y6B/3p4rzjP98riX+wCXLaf+6f4N6InzSv1hR7uqv8nongDdT/S0SR9wyu3+eoNBsva8JnzkF8/Zud60MvrVwcnf/Wz4vtNlDm5FGs/J13M2CuDhPoW4p5GXnd/OqO/5eueu53P/8YXQPXd/U/WfFq2rs9TTqaRmtJx8gF8lC5+EovS6XgtF6W9XpCEHf0ijBIpygbUYrpsBMzLhKjjA0V7YcwxPC4uZJtzrmkzE4bfe79R7mC0RmbyaqC/ZDTQfWa0MfofPue+KSUAnZSnwvPVr+Lfl554e/faQ82wri+/C18mPO3tbUL8pXKatOeG33iObNbmmgCbs0JxSRHs4P++wa+G2scv80eTXj+vQYzir80PLd8sBeB2PJthZGKD52MK4afXRN1qZXAw/aS/2O5UJl8sl2oP+6dTrwfA5t2kzayvKCwPvtf7R69wCOJIfoDy3z+kjrmOMRyulXcjLN7r2ee4HyR9+ph9QhmbinYwPnueP+5vnSfyGIDrj3AH3fSTAXhE+wVmI+7S1T8vmsvsodbM6cT180b0H3aS/u9xm1eQlrx494XFi4xggn16z8aC/Acpz24e24lkrT/N50cq1XN7FM8z5BPXEZjP1nG8DbbF54r/T18jpufWW20J33HGn1Dc0aAG8VUGfgmuwmQRF0yk0lBEB/duln+t4ZkFXvE6nUQMFighpZg/39c0hahMudiDgg+yoyacPd/Ju/Wclu/VRgDBZufrP7uuDPNuThRL0mubjkkdbwK4o9lMPwCEA+kexyK2v1+esPuuifJ7V+1oLrQed6g45BnlQ6xfeS96gU8vTxtR8lO7X0bGpJUoCoVapaOqSs7ID0hQMaj27JCExSX5/373ygQ9/QNqag1Z/POriY3zWTm2tbdLa3ikx/oBsKWuUjcVNEq/UJCc1XlZOiFci4JNg9VvSFeWXUMrJNmi8oXqtb5TkpQbkoXXFct6CidLJSjnaSL8hLiFOgn//o0Sdepm0+aO07kFJiI2VV158xtx5Q23tsmrlaeKpb5ZEb1B2S4f8ubFZbkuKE5+OKK254n209rNPWvdvkaiJJ0uH3m9TKhkT8Ep8rE/+vKtOpuQmSY4+36rfmeFNkkpfjcS3J0qzp80hcgpBxkEgVuLqa6U5IVX8bc3anl6Ji07WOmu/eDu0S4jQ7EQZyspOkR1bd8i8ebOlsLxKAjruslMC0lhbLy3aTv4YryQlpUtJdb0iojugGRf0ndPX3WNZR2sITLLl0IwP+p57XXrmVaTtsDKCeh1vSQZUMIyNXHfGp5aq7WAIxEcZdil0ue/W4nnU/a3fwHiiLK7Zc0ZB9Uyvx0QFpLmt1foepoFtDTdk6sxeiISWr61tIKtEEwFJn05IiLUoyThi4dTFisiU5BSbucDhy/1eRmxIy620rdpbdUz5pLik2IKpxscliV8pRENDmwQ72ZSVFuBARTWBHFZMuDAOXHGOWrQWjLsmzhLksJfqf3tO70EULKcOECCE95Zec8vvl6wUBW1oEy6gMnbVQW62kHbzUrY1vr1P3+8P17c76TXLRx5NtD/F6XNOp2szOr2pt732DaSQUoVOfS+NrZntfoiy+OeWrf8YDPqTu3akPfRt5kACsYlRsvyhHSJ3bQ7JDX+ulYzkaH1/SBKT0+S73/uu3PGpm+X+e38t8Qnx4g8EZNe27bLlrdck2FAp6fE6AJV2+7Sc7dUN8oVLpsmf4tPkscpWSVDk7fQq8tTeK/Nrr5YFpfNlYv1XJKjIlh4fkP985E3Z/MYe+fKPH5PtTR3i18olpcTJo1/+gBStLZPU350i0QnRRsAz0rxyyy0flltv+5xc+eGPSGp2tLVPTVebzPljhfyssEPeE/imxHoTbdee0jfWyvbv3CKe+78kya/9RkKxSRKn9XmgsF5ue2a/3PXsDrmjKEFSAyFJ8ybIlzt+LvOrPyTPpr4isZ4Y6wPYpp/63/8tSfnONZJWXiAeiEFssjz/5sVSUf8zqWx8WnHKWXSVkZUid9x2m6w+aY5892t3SXpyunWn6ID9w/PrJTsjIPuLyrXdtf3d/qE/NBPDj3PAvaedw4n1oXPPGUvW13pglWSnIjz3qS55GFeMIytDx4whM09oXsYObUlRdl/LsrHPbzdRDmMsfG6jSY9AYlKSrFu3ztaheHXQl5VVy9bNOwzxA4EY2bDxTfne9/5bfysz0XGyfsNbUl5ZJF+443P6bIK8/MoaeX7N8zIhP0s+/Ykb5Yl//E0SExy5jiAr+DGwViItPVMK9uyVViUUeIMGtN9++/AT8rmv/1y27z6o5zB36sZBKxfFh8E9wh9j3Bi5wam3gn61NgSumDzk+kyjNnCNbCAZ8k6Xcn2nMZw8gwGc0Bpan4PjdtExVjjv1+vIWWGgTP5RP5vaChPUbtBLLtCV5OH1WpR9pj2nhIB6WT3D4BbBNJAXHUDvO7JDbyCfs248PCCoKxe1Hpwi2qcWFkp+a70kx7broLJaKEJqHuXMT72wxpCKU9pux64t8qcH/ih//8c/pV3zer3ajlHatsrhgBdebJDiUjbY4L0ieRkJ8t+FF8hPNi+WBE+V1VB5vPxdMqVl5VLZ/s7zZL83RslSUJKUq35pcad8dvGHJfW9iSItbbSANW1js0/u+dIB+e4n9kp7i+GnFNZqPz97QJ6Y55PVNbmaS/vZp1yqtFAa9m6XdWs2yt6/PyxRsX7xKssKVZTJA7sb5AOnLpZOlQqoS4f+m9o+TW5JvUGublisukyrclW9k5IscvtF4nvqFSndXS+e6XOUMQSVM4lsKOyUqrqA/OmlL2q5WhmtY7zSjUf+8qDMmjpTXnllrXJArkZp/gR5fP8/pUN1jhmTUsTDGNMnesA5s64Jj02gdx4H6H/GhTF6HSc2Bvmpib5l/LtjJKRjgj53mJNzjZ4dCqzY8C/DD+0T3sVbtm3eIinpqVJTUy0BlQKLD5bJjp17jbGGH9HSQ1JfX2djNVrzNFTUyhWXvVsqSkulva1NyvYXGp5MmjZb/vrwA/oyxRfKKikSNlfds2enSpWNsmDhfAvmmmBrOKJl145CmTJ5suzff8AIBW8yFeDOO++ycMwsCKLyEAM+kY+AQ6L7d+qZCUk0BAotzWANiZjkNInhOz96WmBIsOfDiGkjMQx4arnlWrNoPjcCjOXX7HrLgXBFDeHDSGeqRxhZFassiyEuhAqObWXxXj1qQWRzBwXXOxGAtawouAdA9igQ06dEkZVj+lPr1/2Zej/WF5JT7quQJdk+2XggKJv/3yQpbWiSWEX6R/7ysKw+41zJyctW8atZRT5VFzasl/t+9iOpqKqSfz77jBQVVysXiJZ/rCuQtsYmeXpLg5wyI0Ouv2CONHX4JLHuL3LzmxdJXHOt/OzcNVLov0IyooPy1TfLpKQ5Spob2+TWFRkyN5F6eaS5vV3+WvQ9+fzkd0hx1GrVFxskJzNRPvP/PiVLZ0XJ8+s9cv9PvyMNZTWKo375r6eL5H8ffEH+dss5snJ2rLSo9BVI0oG6Z5u0vfqU5L77Zmls9UirEvjYuFhJU5H8ww/ulPOWTpZzUzqkSds23hut7eCX6q56k6q6tO3pQE96msTc+yvxLFsi9VPmSDTr77VtW9mLT1WwQJSSMv2tyoI2pVdSVWJ5WInj+6++RspVzIcwp8UGTPpoUgLb1NwhyelZUlrhuPDS6/YiPdKlkQQAsH4KK9YuYttYsA7XMR+WVG0A6H03D+V0Ma54g9aX3EgBQf02n9absWUXIyBSlaQ+tnZB28ye1WKROOyaAusbAqrOhIJe6WhXlcnK8khiYpzU1TfpL48kxCfKm+tfk+nTpolfxX8Wd/n0/XVNjZKckiKxUdFSVlMu0X5V79a+oASyQ1KSUqS5pckiNuXn5Wlbe2XZyScpowlJbWWV5OXkSWOTQ2AiCECDVsyaUAmA81V8KE3ZRYOqvhNCD+KfYoA1in2oi/U8A5HQv87jhwYe01ZxmqcHeN6kEX5oitLfphKEO8Zyh8V5ezMtS300H0fOyWrPO5cUyRHd0OHcgaL5kCR4TjM7YiHJvsAhIBytAMrijjOwTFLQ32iXPGHPaVm5CUoglOLTfsX1DGYuhyRWde6Wjg6VYlR/VUmjUwdjbEycbYsFsaqqqIaeaF6vRMcE7PlYJRJwu3od7DY4VYxuKN1jEXU7/Kk6aBkgUZKk6pbTXSFp7OiSdupo74yVbRu2y7xFCyTY1uQ0l35/hnIDpBa0tAbVqaOVk/q045PiVApQvb5N9cM2bBean+bsUG5dVFkrk3Im6nNKaNClVdwpqaqWxOiQpLBjT3u4HRQZC/bvl4yMTP22hG4k8/kDsnXXLpk9a5YO9g6th+bW9oqOiZc33nhdTl62THV7EMDpC+INbNi0SRYuWGAcj7ypSbHy2utbpaK8Sk4+ZYGkxMXrM0TwCY85ekrri82Cs0iw+2EC4NaphwA4z3F0xofecy4YAaATIQIOUXHGvfIGZQL6ZwACQP15muTWiRp4QC7N6zUmRY30KnXQ+/bd5HGf0od4D//57VNpDGncGKPmYFyyaApGwpgyZqn5YlR84n5ImRRMFQe+Lu0vxnIHNgd9j8NAeSk1EPn/++72+qbp5owAAAAASUVORK5CYII=;" vertex="1" parent="1">
          <mxGeometry x="270" y="165" width="214.83" height="120" as="geometry" />
        </mxCell>
        <mxCell id="DC5LUboHaYD9eqo_H9xx-11" value="" style="shape=image;verticalLabelPosition=bottom;labelBackgroundColor=default;verticalAlign=top;aspect=fixed;imageAspect=0;image=data:image/png,iVBORw0KGgoAAAANSUhEUgAAAMgAAADICAYAAACtWK6eAAAgAElEQVR4Xu19eZQcZbn+81bPhCQEMl09YfshkExXTyIiiGCAIIJEBVG8gBcVBAWEpKsTBGRVj+b+BNlcIJmuTlDByxIQrngBWWQRkEVCBEUMyXT1AIJEEqarJwZCkpmu956aSWJmurqW7qrqreqcnPzR7/59z1TVV+9CCK8wAmEEykaAwtiEEQgjUD4CIUDC3RFGwCICIUBqtT3u5Mjk/pd3FiI77gR9085UbN9JZ+ww1hwe3/73dWfv81qtzGx1vSFAAtgBnYve2ENv23Q4mPZj4v2IsR+AaU5VM7CJgFUw/hFW6kN4cmC+9IRT/pCu8giEAKk8dpacsZ7sTI7QMWAcC2Cm92r4XUB4kln/gwB+PJ/qXu69jlBiCBCP94CYUU+GjjNAOMZj0ZbiGLgX4F8VOqVf4WQqBqm7mXWFAPFodUVF/QZAXwd4lkciKxPDvAoC3aHFNl+Jk/fdXJmQkGtrBEKAVLkXYkt6p7Mu/ACML1Ypymv2ZaTjyvw86R6vBbeSvBAgVay2mFHPBOMHAPaoQoy/rMxLuC3yw8Kcrjf8VdSc0kOAVLiuYkb9PhgLKmQPmm2lADqtX46/ELTiRtcXAqSCFWwwcIx4yDykR9qOHpg77Q8VuNyyLCFAXC69mM7eDaITXLLVDTmDP1eQE/fXjUF1bkgIEBcLFFPUexg43gVLfZISFmhJ6b/q07j6sioEiMP1EJXstQBd6JC87smI+Yx8KvHLuje0xgaGAHGwALGMehozbnZA2lAkehFHhSkr1ksWAsRmS3fc9FqHsHHoj2BMb6jd78zYt3QaOnwgOeN1Z+StRxUCxGbNYxn1SmZc2sRb43eaLAWaFtNIsQwBYrFaoqIeAuCPjbSgldjKjFQhJSmV8DY7TwgQkxXuXPL67ro+eA4Y59T1V3KvdifRmvHCwLTVcw7a4JXIZpETAmT7lVyo7iC249KWAcb2vhNdqCXjP26Wje2VHyFAtkRyyuI+qaizAvBsr4LbaHIG9aHO9fNm5BvNbj/tDQECQOzJfgoC/QLAB/wMdv3Lpkc1Of6p+rczOAtbHiCdyqvdOopPA+gMLux1rel50oVv5+d1PVbXVgZkXMsDREyrvwDhzIDi3TBqGPTZghx/sGEM9snQlgZIh6IeLwBhQZH55lpLOh+fn5dY5tPeawixLQ0QUVGNR6valsjW8TZh4IWCLB1Uxyb6blrLAkTsUQ+FgGd9j3A9KWBeDSJX1Y8MmlOQ4zfUkxtB2tK6AMmo54PxkyCDXVNdjJ+SQHlmvtyNHa1+F2ldgFRc+ESXA3wZgIibjVZLWgafWpATSycrf49GsPkpAPu6sYcF4bjC3K4H3PA0C23rAkRR1wOY5GYhmdFTSEnzY+nsiUz0aze8taA1/vqD9fMKqW7jXWv4iilqioEeN/Yw89xCKrHEDU+z0LYkQMR07jAQP+NqEYlu15LxU7byRBX1CgK+7UpGQMTDwADdUO7dQVRyT7vp38XMVxRSie8GZH5dqWlNgLjtSMK8uthGR6ybI/Vtv3pRJfcbAv9HHa3oMgbdaPdSLaZzXwLxHY7tZr5dSyW2/XFwzNcEhC0KkNwNYD7b6foxCXIh2ZUxo7frcKLJEonGgYCOC0DY06lOF3TLQHiQivyQm28WoqI+BOAzzvTw05qc+Lgz2uaialWA3A/mzzpaSqIHtGT8OCvaLXUjxjtJ+SNUwssMLAXrGkGYDcahFQJGJcLzrPNyYjznBhTb+xBL577D5PBEi/CylpQ+7CheTUbUmgBR1L8A2N/RWrJ+jpbq/pkdbXRJ32Qq6j8FcIYdLYBnmXAfFXEfRXCgzpgBxk5EvBOAnQCaRMAmgN4C8BYb/zO91TYOL609e9qasfJj6d6DIURmgnmmDpokELL5ZPwSKzuiSu/HCYLTHllvaLK0twO/mo6kVQHyjsPkxP6JG9/Z6x8XHPa+05WPKrlzAD6HgI864mEeAuFFInoBzCtBNMAQNnBx6H1mYQNFaAKRPpHZ+J8mQNcnskATiDEFwCEAzQTY7Mj5Lk2WTra886XVNx3exdZpstThyJ8mI2pVgLCjdST6mZaMG1WFri/XQHGtwYaBsUZLSbtZAiSTWwrmrzhRbbxLOaFrNpqWdFpUVEcAIZ0PqfQZf+tGiWbUUwUdxzLxsQCJgW0gBydPjtsZEa3RknFLsAXmV8CKQoCUCTgBf87L0oFercfOP39TjAxuPNYACwiHMNDllezt5KwFaDmIlzvpnLhTz8pYu9DWb2tH+JJuG6KmInB0B/G5PaeYzn2AiT4sYGh/hvBhEHWB9d0BMv5SO01jMd5ZljH4eb2IZevmSS+6XahoWl1LNPw+Y3G1bqVheAcpty18BojVdpy0UJ3S3lbcnXWhI0KR93V988ai0P5+W5E3DgpD7098f/PGNe99+H0sIN0tIMbSRzPqC8SwvFMSsDQvS6dWq6sR+UOA1CFAgtxIUUW9h+wachN+qiWlC4K0q150tSRAooqqEhC3eay4VpPjF9fLQvllRzStpokgW8lnwmWFpHSVXzbUs9yWBIioqEbqtjGeufxF9EstGXfy0a+e19fWtmhGvZQYV1oTCmdqctdNtsKakKAlARJVsgsJNN9yPZkf0FIJyxSTZtgPUUX9KgG3WN5BWnjoTksCJKbk5jN4ofUG5+WanPhYM4DAyoeOReqRQgSPW9EIutDdP68r2+yxMPOvJQESVXLHEtimQo5e1+T41GbfFPbFX1TU5Hhbs8eh/FlNC3puHKOOa8NaG9ff02TJVcVhI4ZSVNRvALBKxnxOk6VDG9E3L2xuyTuIETgnH8ja39swac1F+7/nRaDrVUY0k7uYmK8uZx+DFxXkxLn1ar/fdrUuQByc/+s0NLXZpy/F0tmrmajscTYRTs8nJcuXeL83aS3lty5AHBxvEgsfy6e6ltdygfzWLSqq8XhlPGaZXlTUZ+Tnd6/y2456ld9yABEXqx/UB7GLsSB2pzdM+GohKd1Wr4vnhV2ikvs1wCeWk2UM+tz6WysO/GwpgAxPjioOPuK0LxSDFhXkeFM/f0cV9XECjnQItr9osvQRh7RNQdZSALFrsGCyoss0WTLmFDbtJSrZvKs6lRomcdZiEVoLIIpq1Iyf5zTQDGwqrL1tIhYsqDpr1qnOIOlimd7/xyz8w6XO6zRZOt8lT8OStxZAMrmbwPx1V6ul4zBtntSUk26dfTAdE60WyVHb6nVLASSWzt7LRJ93BRDm87RU4npXPA1CbPcNxMwNYr4vn0oc3yAuVm1mSwFETGfvB5GzflhbQ8v8Sy2VaMqs3lhavZUJ7gqhWiSJsyXvIKKSuwbgi9z8WfG6Nt2Nbr9pRSX3EsAuG8JRS9TJtCRAjFY8BHbbpZzbiXZbk4zb5W75vZ89l++oNn+M1lYbqNNSj1gxJTubQcZ3EFcXQ/9sQe5uqoGWlc5nJPCn8nLiUVcBbGDilgKIsU6iy6Pe4bUlvl5LJhwfDzfCfqhoum+LfQMZXvpGWEyvbRQV9c8ADnAsl7FKS0kzHNM3AKGo5F4DeB8Xpv5ak6UvuqBvCtKWBMiWO4mrCVOk67Pz87ofa4ZVj2ZWzSKObJs6ZesT0WNaMj7blq4JCVoWIFtAYkyZOszZuvK1mpxoii4nblJuiHFbPiV91VmMmo+qpQGyBSR3AvhP+6Xlv2pywtnIBHthNaVwmqDIwM0FWfpaTY2tsfKWB8gwSEZGshld3C1niDP0IwpytzEltmEvI90fOlbYOLAahBuc9Pdt2EA4NDwEyJZA7XPTa+P/tWloGuu4hIDTzeLHxFcUko09zNLq8cq4Y5CAq3feoe3V18+YutHhHmpqshAgY5Z353Qu3kasmq46409aSjq4kXeEqKh/K1cPM8Qk/SsVzzWyf17bHgLEJKKiopZ9L/FiZojXi+hUnqioxruW4ZvZZTuRyqmeZqILAWIGEMs56nyDJifmNOImsAI+mGZpqfizjeiXnzaHACkT3Zii3sfA58x+FkAH9cvxF/xcGK9lW72cE/DbvCy5KwPw2sA6lRcCpBxAMrkTmPlu858b7y5i9XJORCfmk/Hf1OkeralZIUAswi8qatkPiY10F+noeXVvQSg+D4x0cxlzPavJ0qya7sI6Vh4CxBogFm05G+cuEsvkrmbmclkAZ2uy9PM63qM1NS0EiE34xYz6JBhHNOq7SCydncFExt2jtM8w4Q9aUvpETXdgnSsPAWIHEMuj0fq/i0TT6iIizCvj5smaLN1V53u0puaFAHEQ/pii3suA6SlPPb+LdC5RD9SLMFqnCmPdJOC+vCy1TPMFB8tsShICxEHkxLT6aRB+Z0rKeEhLSdbj3Bzo8INETKsPgnBMGbs/o6Wkh/3Q20wyQ4A4XM2oot5MwGlm5Mx8RSFVXzla0XT2ciL6jqm9wC0FWTLNN3MYjpYhCwHicKljmd6PMQvLypGTrp+Yn9ddF98SYj29J7AglPmGAxDpM/PJbuPFPbxsIhACxMUWERXVqEs32peaP7VsFvYunNf1hguRnpNGr+vbi8bpf7cQfL4mS9d5rrhJBYYAcbmwopJdApBRO2J25TVZ6nQp0lNyUVH7AcTKQLhh88g8DZILYSFAXATLIN1jyeqJG4vvPgTQx8tswqc1OVHmN5fKXJKLSvYpgA4vY9dT4yOTjlk9Z48NLsW2NHkIkAqWv1PJfbQI/SEClbtbrNBk6UMViK6YxarOg8H9EQjHNFqCZcXB8JAxBEiFwYwq6lcJsJrdt6L9vQ0z/R4Cuuu1L+04uONE4/Bg33KuMHBaQZZurdDVlmYLAVLF8kcV9QoCvm0hYoWA4kn98vTeKtSUZe1UVnXriPzaBhw/LMiS6XGvHzY1m8wQIFWuqKio/wPgJCuQ6ELk1IG5016qUtUo9o7Fr+4v6EVjfmLZOweAlmz25mWcQ4B4EE1RyT0PsFWtep7B3y3IicUeqENUyc4l0OXlT6sMLbRck+Mf80JfK8sIAeLR6ouZ3Ntg3tVaHP03dF5S6cQqsUc9FALNAdi6VxXRGi0Z380j11paTAgQD5ffxUDMu1jnmwv9gw9jwb6bLU1YsGJctLP90ySQkRripMGdpsmJMt9BPHS2RUSFAPF4oV1ObRpg0BMCisuZ2t5mxprhhyPCrsRDu+mIHExgY0RzhxMzW71NqJMYuaUJAeI2Yg7oo2n1SiJc6oDUMxJmXFVISZd5JjAUNByBECA+bYSokj2FiC4FYz+fVIyIJbzMzFcV5MRSX/W0qPAQID4ufHRJ32RhSL+UfbqbEOMqvU24qjCna52PbrS06BAgASx/dFHffoKgn8KEUwDsVaXKN4ixVNeFpYX5XS9XKStkt4lACJAAt4hxR4GunyIwjmXQbIAnOFNP7xP4UZ3wIARhaXjHcBY1L6hCgHgRxQpkGN3k123UZ0MvHgJQlMBR4/8RUVxgUMH4H0LkucnjhUfDbusVBNkDlhAgHgQxFNG8EQgB0rxrG3rmQQRCgHgQxFBE80YgBEjzrm3omQcRCAHiMohT0msn6ZF1R+fnSve4ZK0peWyx+oUdaN0jq+ccFJbculiJECBOgnUnR8R3XjsaNDSbmY4mwoAmS0c7Ya0XGlHJPgKmDiY8zEU8MjBfeqJebKtnO0KAWKxOR0/2CEHgo4HIJwEe1Qxh5wltExrp6FVUVB7j6jIQHqQiP5Sflyjb76ueN28QtoUAGRPlzsV9BxV1/WgCPomRf21mC8EQTi3IXQ2R/xRVeo8lCA9YbKi/gPEYQI9q73Q9igU0FMTmawQdIUC2WyUxk7sOzGcA2Nl+8egOTY5/xZ6u9hRRRe0hIOXQkr8AeIKgP5mXu//XIU/TkoUA2bK0U9Kv7VakoUdtary33whva7K0eyPsDFFR/wzgAFe2Mn6mpaRyDfJciWpk4pYBiPHopBeLs0A0S5Olk8cumoM2PqXrzHSsloo/VM8bYMriPqmo61m3NjLwREGWjiqJ06JVs6itfbeILjzzTmrq227lNhp90wIkqqz6MNB+GKDPImYDGFOHF4dwlpaUbhy7UDElexuDjGxbxxcRrsonvStSivVkZxrKvXxpFjPqmWD8wrFT/yZcr3X+OYqTTy5uzxtdtHI/irT9FeA8g54ipmcQ4We0udIfK9BR9yxNBRAxvfIwoO1EEIx5HR80iz6Rvmc+2f3W9r91Kq92F1F8iYAd3K0YP6/JieFNXe0VU3L/weDrRzBM38zLcU+e/0UldzvAX67EPkEXuvvndY26+2wZCPq6iTwV4KcBerCZplY1PEA6l7yyOxfbT2TgxC2nTlZ7YZkmS4eUPDZkshcT09WVbCIIOKzav57RTF+SWFe2188kyIVkV6Yim7YwjWxmfaXztPox2gjHaElp1OCgycrfoxFs1mzsWgHCXcY/ba70SjU+1Jq3YQESXdz3WWMmBxgngZw1NQBhgZaU/mts0MW0+iwIh1ayGEx8RSFZ+fAcy0E3VQ7miWVy5zKP3JUqvEpnGBofTftzbo6BjRmIdzXqXaXhABLN9H1OYP2ccjMDrTYC6XzI2Of7nXpWxtqF9jUARyrZRAT8OS9LB7rlNXrqDu048QbGcJVh2YuApW3vbTinkh6/UUX9PQElL9qObWV8Q0tJJe8vJh8dnYh8RgeuGZCle50Q1wtNwwCk8xerdtI3R24E44sVBu9dTZZ2Mrl7lJ8/6FCRDhw5IEtPOiRHbFHvdI4INwEoedwrI+M5Kupn5Od3r3Ksw2YiliM5hAu0pFQyMKhCgIyoZNw4cdP4ef+44APvO7KhxkQNAZCOnlf2FoRxDwOcqCJez2iyVDI7I6aolzHwwyrkGqt+rSYnLnYjw+0m02TJ1Vo5aKxtb265R9LStBV7WaMo+Glhh/Ff6j9rr9UuGQMndxX0wK0zOqYtUo8UIni8Wt3MUAopqeRrspjO3g+iz1Yp3/U8EKt3j7G2VDIk1GpeiGNfvX3EKlFLgjA7P7frMcf21ICwrgHiFTiG40p0jpaM/6zkEUtR/wWg5NHL9Vro/GltXuIRN3xO7yKu7x6Zvs8R6/e5scWU1uQUa+Sdrc0Y8+bRJZypyV3G42ZdXnULkMmLVk0VIpGHCYh7ETmiyMx8ctqoya4d6dcOEGjISMPw4rpOk6Xz3QgS0+oNIJxtyVNByoeoqD8HcJYbW0xpBew79phWVFTjvcnTj4I68IV6fXmvW4DEFPU2uxMeNxtAG8J4nCtt2p5H7FFPhoBfuZFjQatqsuTqHSmqZI8j0G+t9LMgHFeY22WViTuKfddMbpdB5hUAqh8mOoTJ2rmScYfddsXSvaczCf/tUcy2ijF9P/RYR0Xi6hIgMSU7n0ELK/LIjImxSktJM8b+JGZy3wLzj7zSw4JwSmFu1+1O5UUz6qXEuNL6DkIXaam4YxvtRlU7tQ2AaTKmqOR+APB3XchxRMrMlxRSiWscEQdIVHcA2fPONyds6H//FYD28TAORvpDyYu4mM5eD6JzvdJDwG/zsvR5p/LETHYpmOxS5m/SZOlMxzIV1Sh+8mJwzkOaLBkpO6MuMa3+CoSSZE+n9pWlY/w9gs0feie177tVy/JQQN0BJJZRT2PGzR76CAZuLcjSaaWLnb0bRCd4qQtMs7RU/FknMkVFNVqH2k3DNU2PMZO/JZ/rN05029Iw/0hLJS4aSxdT1BcZ+IgtfyUEZRJJKxHlFU/dASSqqPcQcLxXDg7LIbpeS8bPKwFIJrcczAd5qYsJPYWkNN9W5oIFgrjLqaMyZcvwrNdkyUEBFyAq6p3OhuzYWgcmyIWkVJILJqaz74JoR3sJFVH8TpOlYyri9ImprgDSkc4eIBB5dar075ARf09LJn5QAhBFNQbW7OJtbFkTiuP3659v/RGsY3Hv/oIuGNV79hfTXloq/qYVYUdG/YjAeNFeWAnFewC/AhJWAPzvLF2dlo2tddn15rd3HHx3va+PQEzFwwvJ6c9U4IcvLHUFEP9eAJEqpKRR2bJYwIK4S87JX3D3gWe+SEslLF+sO3p6TxMEwdmjpMn3iFKwZ68BqOSRqJzxRkEUGHcNFnHXu+dK7zhxsgoQOhE/QsO0UEvFv+mcwV/K+gGIsWGn5Iw06emeu8z0ZS0VH3WcOyW9YlKRxq33XNfwGuPFQlL6qJVsUXGxoRkXaKnSnKit8odT0GnzX8HY084fI7lSJ7qmkIzfYUdr9vuUdC4+RPq5BLJ/jKxEAejtwUhxv/Vzuj38GFmRIcNMdQMQj79JjIoIQfhUXu4y6s23XZMWqlPGtWFt5aGz4WT8p5aSjBnqppeoqMa3jZJTojLkP9dkqewHxehiVSYdaVtfCAvGC+uu9aJ5nJhRPwOGkchYcnxua4dd6Njkjl+t0Ar56wcg6ewvQOT4ONONv3oRR41tlDaSANluVhnnRrQFLd2tyfGTLADyBoAPOFT2rCZLsyxkPQ2g7O8GH4PmFOT4DQ71OSLbkkT6E4CNYjUPL75DkxN2x98e6isvqp4AshJE3j9eATADSGxJ73QuCiv9jDKx/rF8qnv5WB0V5DMZnRy3zA4ZLS26WP086bCssXCby+U2Jl6enhm6CejLy5InKUZufRlLXxcAcXWiU4HHZgCZ3KMeGBHwQgXinLMQbtSSUklOVGd61VE6RX7vXBAgRNr36J+zzz/H8gy3FB2eVmV+OclzGklPoeMA/bgtdfkDOtEAMQYAvl+TpefsbPUaJDDJA7OzwY/f6wIg0YyaJMboUyYPvTUDSDSTM7qdGI8mvl5mxVQxJTefwa5SacxSw2Pp7NeZqHwmLONGLVUK0K0Oi+ncl0D8Nft3IVoO0NJ24qVrknHT97aOzMp9BG5/HGBPMiAI+tfzcrfXOV+u17ouACIqqnGi8iXX1jtkMH3E6snOZIFs/zI6VGFFZtRjj0rNEJXsEoBcNWUj0Ll5Ob5om6Ilf2oX9cnLwdi/jPJ+AZHD++VpvWa/i4vVs6DDyPp1fjGvIoG/lk92j8qK3irAFrDONYHAi/NyIumCxRfSegGI0SXD9BnbC6/NAGIcVxaJVS/k28lgnT9fmJfYlrUrKqrxIewwO75RvzMv0VKJudv++ivqBQB+XE6GVfKfqPSdB+glpbTO7KF/kk6n5eeZFzrFFPXeSvoFmOh2XYTmzH53VDUHSCzddzCTbvoXyZ0r5anNALLzz98U2zZvzHulw0rO2C6FoqIOAJjsTjc/pcmJIwyeXa57ddfB9uLLRJhSRsZKTZZM+4KJGfX7YCxwp7uEeiOxcGo+1XX32F+MphqeFGsZXcM3R3Zbe940I9uhZlftAaL0fpshXOFnBBg4rSBLt47V4bSizwvbtnaDr+LOlddkabjGw+4jY7kS3c4lr++uFwf/BGCPqn1i/EFLSZ8wk2N3cOBUNxGdmE/GvUm+dKp0DF3NARJV1McJOLJC+x2xMeGyQlK6qhQg2TxAoiMh1RMNPzJUk3G7mWjXcYPciTYYBVFlL51w4EBSKslp8+jusU2v2QdY48eYoioMePD+QD/S5Ljj9Jnql6hUQs0BIio5Yx54hx/ObZVZrmFDVFFVr0p6Hdp/PoEnMagkcdIJv044ihhnEfDVsvTMD2ipxHFjf/f07vFv4SUHEMMAqb5h3YgGwiNaUvq0k9j4RVNTgBh155FI5FW/nNsGEODegix9ofQOohqnWJ701nXiAzPeIYLx/aOiEzsWkLJNKSnXicSbd48SN4vgrnVyYtQaethsY60mS7s6ia1fNDUFSCyTO4GZS170vHa2XPKgqGT/B6Cy6SBe27FF3t8cFEmZqyZ+DEwWsxHpn/qEyAcHzphqHAL8+zKOhIuTjaZz07z2yewARFysfhC69WOgUzvKfSB1yl8tXU0BIiqq0Sf3e9U6Ycdv/OUupKSSuo9oJnc5MX/Hjr9RfmcgXZCleSV3yrT6xeFm0j5cZgDxNBG0xjNYagqQmKLew15XD5bZBOMj63Ycm8XqR3mvD3vQsUii4tH55PSSFJaoot5i+d7iWEMpoRlADCqvTggZuLQgS5V13q/Cr62sNQWIqKhuMlqrctfsZCfmRf/aqqzykpme1eR4SUZv56I39tAjm4zHq+qb45mYawaQnZb0drYXBUdFWLYRILpdS8ZdDTaylemCoGYAqSCj1YVbpaRM9JWxRULRJX2TqaiPfl6vSksNmYku1JLxki/rtchzMwYS6Sg6brRtE7VXNFnat1aRrRlAYj19R7Ogjypi8jUI5RoxZ3KrwdwQwzgt4rOxWCx+cN386a+VvH8oqjFD8TN+xVYQhIP753YZHx+3XdHMqlnEEc8SQbXIunGYc9CgXz5Yya0ZQLxu2mYfPPMinCA+VNrbVh0FEW7LJ6WSbyMdi1/dX9CLzhpDVGpCOz6gnS39YxRAHNSouFFnBkI3/NXQ1g4gimo0kv5GNca74S036Mbrr8tubPKKllg4ySwvSlRU44SwZKKWV3oNOdqMeDuOolETp7zM6jV0lEsV8tKPcrJqB5C0+iQIw8l3wVy0QZPjJf2cYpncJ5m5rlvwW8eHezU5YVqJGc2oLxDD9fQr5+vBeU1OlPQAFm0yjZ3L30b5/zVZ+n4FfFWz1A4gSm41EOyzPw3pM/Pnjq5lGJ5ctSkyqkFz1VENUAARXZNPxi8ZqzKm9M1m6K7GMVRgtmlKejSTvZyYvPu+VMOTrJoAZEp67aQirfOl5Y7lIjN/T0uVNpBr5PeQco3Wokp2oX+tebZEmegxLRkvKff1LllxRA8DLxRkydMOmE7/GNQEIIHUg5tEgIHHC7L0ydK/tupVDJT8FXYaxBrSmY8NuPPOiNh/QBYgz1NLtveVwEvzcuLUsf6LSu4OgCvKNysTy39psuSyfsabVakJQLbUQlfUuKxKtzcL64ud/ZdMH3X3EjN9J4H1sj2sqtTpG3u5qsFoWv08kXWnE4+M+okmS98qBYh1I4lKdLe1R3Zbe3bwxfJF72oAAAhfSURBVFM1AUhMyX2XwRWlfFcS3FF/9UyKcIzOhAJv7rWo0KtWrS/8AiLTzWrOxXR2MYjm+KJ0O6EMurggx68dq8ePwwGGfkRB7n7Kb5/Gyq8JQKKKejMBJeMIAnGe8WMtJV1Y+ldPvRHAGYHY4IkSfl6TEyWp+nv+5NkJG8ZPMRo1OG1KV7E1RDg9n5RuMXnEes2r7ibbZNdoNEJNACIqqjHjzumM8IoXsAyj6byNGj72VeQfgxYV5HjJ8B8xkz0JTME8LjI+o6Wkh03+2KwD4Ghkg1PniXBVPild5pTeK7paAcRoTBzzygm3ckjnQ/LzEsYkpm3XSMXd0B8B3tutvJrQmzTkNuwQleyNAAVyJ6SiPiM/v3t0ztWCFePEXcaNmgXpSXyY79ZSiaBrd4JvXl2zI95RLyJYoCWlki/Mnk2H9WRHWAsZjOhTxnZAFxeqOyOCLAiBVOHtPKFtwutnTN24vaXiQnVPtMFylkkl4XHSMb8SuXY8gd9Bpizuk4q6nrUzzOffTdvixJTerzEiFwAsAZjgsw3ViH9Jk6UDxgqIprNfIaKl1Qh2wWs65NO3I3zCGi0p7ebCPk9IAwdIx+LsEYJOT3pifRVCzB6ztoozTrXaMTitSPoJxMNzMDx9nq7C7GFWBm4uyJLRMnTUFVPUW9iqoUO1ikfzP6fJ0qFjRYrp3DEgftBbVSPSapHVGzhA6uZlmHmhlkrYTjKKpbMzQDTfmzY23mwbBr5dkKWS8dFiWu0FwdWs9sotojs0OV4yoiCWzp3OxL701NVpaOpAcoaPIytKoxE8QBTVGKZZYdvLypdzLCcxn5RPJRw3jBDT6g0glB1i451l9pIIdEJejv/v9pSeVvHZm4Byp0piOnchiEu+jTgQaUvCRIcXkvFA5xcGDpBYOns1E11sGw1/Ca7TZOl8VypGOoMYxUclqSqu5HhATJG2Gfk5U0edHnnYaseRhQxOFuTE4pJHrAoacztSaBARvqQlJWOSb2BX4ACp6UfCLWEVUJzeL0837XpuFXkxvfIwUFugf8HM7DEbiFNFS9PKNluZbiOikn0eoIMrE2rL9S1Nln5iS+UhQeAA8apva+UxoKc0OV5xHYqYVgsg+NoJ0s43AXRQvxwfNfzHz6GkZvaYfgMZ6WZijIn2a466ae6XXbyq+b0GAMm9DPCHqjG6Kt4ytelOZYqKahRX1fQxq9y8wZiiphjocepLNXRm30A6ldxHdfCo+vRqdJTy0q80Of5lb2VaS6sBQNSafkVHtQDxqYWnq0W3OIGLKrlzAD6HAMsx1K70jSEeO85h689el9qa2Gie3l+NMza8wQLkzhXjxH4f0hDcBKhagNTBHQSMR7SUdVNnceS00ChT9fxxsGwWr+9FWvS6JsenulnuamkDBUhHz6t7C0Ix0HNskwD9TZOl/SoNXD28gwzbTviplpSMKVNlr+H8Mn3oFjBb9PN1HwmzdyBDSgDd8gc1WRrn3uLKOQIFiKioRgavkclb04sibYfk50wdlazoxKB6OcXazlbbU51YWr2VCSVVf078NaNh8KKCnCjJIo4quWMJ/EClcp3yBT11KlCAxDK9JzALjj/OOQ2aWzoGbi3Ikut6FFHJ3g5QoC+Jtr6VyerdyudpWyPWL9RS3aZzEQOpgQdQ1PHRdfOkF23j4hFBoACJplWZCGmPbK9KDJP+lUKy23HZr5hWzwK5nApblYWumB82xkGPba1a8cdD4scY9GtAeJOHdOPYFmjXCwNzu18qZ1UAj1fDqlnA8YW50n2uolMFcaAAEZXsDwD6bhX2esvKdJGWiv/ITqinf4XtlFX3+xsM6gHTPwi68bHuuEpys8q9Y5QzTVSy1wJUUqVZnSvm3EyQC0kp44dsM5kBAyTYbopOgkjAfToJNxSSXdvGNBt8eyxZPXFTccOnGXw5gJo1T3big8c0phWX5XQEPUKCia8oJBOB/ZENGCC53wJcMj/P4wWuSBwBfcz8VwhkPEbMAtMsgCdWJKyxmd7SZGlPJy4YtR+CgGcJ2MEJvSc0RL/UkvFAKiYNewMFiB/dLjwJeihkVASI+Yx8KvFLq7CIGfV86LgABEdg8i7E/KgmJz7lnTxrSYECRKxBu9GgAtlsegj4DgO/h4B/oUjr9YmR9QM77rM+9o56GpPwfc+7ljgPoGk1qHN2d5QBA0Rld+aF1GEESiIQaJfFwADi6WDHcNe0dATa39swac1F+78XRBACA4iXo4GDCEyoo34joFPb1IHk1EBSlgIDSIeifkIAnqjfsIeWNUoEiPSZ+eToMRZ+2R4YQEQfZ3X7FZxQbn1GgCF8riB33R+EdYEBxO9pq0EEK9RRLxHgMzU5cVMQ1gQGkCDm5QURsFBH7SPARJcUkvFrgrAkMIBE0+oiIswLwqlQR5NHoEyHfj+8DgwgoqIambNeTh3yIx6hzAaIAAO3FGTp9CBMDRIgNW92EERAQx2BROAhTZaODUJTcABJq38FoeJS1yCCEepojAgw48VCSvKtKcX2UQgOIIr6TwCBd+dujCUPrXQZgTc1WdrLJU9F5EECZBBAW0VWhkxhBLaLAAObCrI0PoigBAOQBY+3ibvsaQAkvMIIeBIBs/arnggeIyQQgIyMNxtc7YcDoczWjEA70a5rkvG1fnsfCEA6FvbuL7QJf/HbmVB+60SAifYrJON/89vjQAASU/pmM/RH/HYmlN86ESCio/PJ+O/99jgQgESV7CkEus1vZ0L5rRMBZj6lkErc7rfHgQBETPd9E6Rf57czofwWigDzeVoqcb3fHgcCEKOBmd+OhPJbLwID8yXf64sCAUjrLV3ocbNEIARIs6xk6IcvEQgB4ktYQ6HNEoH/A2ukbZtlULGBAAAAAElFTkSuQmCC;" vertex="1" parent="1">
          <mxGeometry x="110" y="175" width="100" height="100" as="geometry" />
        </mxCell>
        <mxCell id="DC5LUboHaYD9eqo_H9xx-12" value="" style="rounded=0;whiteSpace=wrap;html=1;fontFamily=Verdana;fontSize=16;" vertex="1" parent="1">
          <mxGeometry x="640" y="215" width="120" height="60" as="geometry" />
        </mxCell>
        <mxCell id="DC5LUboHaYD9eqo_H9xx-14" value="医生" style="text;html=1;strokeColor=none;fillColor=none;align=center;verticalAlign=middle;whiteSpace=wrap;rounded=0;fontFamily=Verdana;fontSize=16;fontStyle=1" vertex="1" parent="1">
          <mxGeometry x="130" y="285" width="60" height="30" as="geometry" />
        </mxCell>
        <mxCell id="DC5LUboHaYD9eqo_H9xx-16" value="&lt;font style=&quot;font-size: 78px&quot;&gt;iMed&lt;/font&gt;" style="ellipse;whiteSpace=wrap;html=1;aspect=fixed;fontFamily=Verdana;fontSize=31;" vertex="1" parent="1">
          <mxGeometry x="200" y="610" width="300" height="300" as="geometry" />
        </mxCell>
        <mxCell id="DC5LUboHaYD9eqo_H9xx-23" value="ResNet" style="ellipse;whiteSpace=wrap;html=1;aspect=fixed;fontFamily=Verdana;fontSize=21;" vertex="1" parent="1">
          <mxGeometry x="130" y="980" width="110" height="110" as="geometry" />
        </mxCell>
        <mxCell id="DC5LUboHaYD9eqo_H9xx-27" value="UNet" style="ellipse;whiteSpace=wrap;html=1;aspect=fixed;fontFamily=Verdana;fontSize=21;" vertex="1" parent="1">
          <mxGeometry x="100" y="410" width="110" height="110" as="geometry" />
        </mxCell>
        <mxCell id="DC5LUboHaYD9eqo_H9xx-28" value="Deeplab" style="ellipse;whiteSpace=wrap;html=1;aspect=fixed;fontFamily=Verdana;fontSize=21;" vertex="1" parent="1">
          <mxGeometry x="390" y="400" width="110" height="110" as="geometry" />
        </mxCell>
        <mxCell id="DC5LUboHaYD9eqo_H9xx-29" value="ViT" style="ellipse;whiteSpace=wrap;html=1;aspect=fixed;fontFamily=Verdana;fontSize=33;" vertex="1" parent="1">
          <mxGeometry x="80" y="570" width="130" height="130" as="geometry" />
        </mxCell>
        <mxCell id="DC5LUboHaYD9eqo_H9xx-30" value="UNet++" style="ellipse;whiteSpace=wrap;html=1;aspect=fixed;fontFamily=Verdana;fontSize=21;" vertex="1" parent="1">
          <mxGeometry x="20" y="710" width="110" height="110" as="geometry" />
        </mxCell>
        <mxCell id="DC5LUboHaYD9eqo_H9xx-31" value="EfficientNet" style="ellipse;whiteSpace=wrap;html=1;aspect=fixed;fontFamily=Verdana;fontSize=18;" vertex="1" parent="1">
          <mxGeometry x="295" y="940" width="110" height="110" as="geometry" />
        </mxCell>
        <mxCell id="DC5LUboHaYD9eqo_H9xx-32" value="ResXnet" style="ellipse;whiteSpace=wrap;html=1;aspect=fixed;fontFamily=Verdana;fontSize=21;" vertex="1" parent="1">
          <mxGeometry x="110" y="840" width="90" height="90" as="geometry" />
        </mxCell>
        <mxCell id="DC5LUboHaYD9eqo_H9xx-33" value="YOLO" style="ellipse;whiteSpace=wrap;html=1;aspect=fixed;fontFamily=Verdana;fontSize=21;" vertex="1" parent="1">
          <mxGeometry x="540" y="680" width="90" height="90" as="geometry" />
        </mxCell>
        <mxCell id="DC5LUboHaYD9eqo_H9xx-34" value="&lt;font style=&quot;font-size: 17px&quot;&gt;FasterRCNN&lt;/font&gt;" style="ellipse;whiteSpace=wrap;html=1;aspect=fixed;fontFamily=Verdana;fontSize=21;" vertex="1" parent="1">
          <mxGeometry x="220" y="470" width="130" height="130" as="geometry" />
        </mxCell>
        <mxCell id="DC5LUboHaYD9eqo_H9xx-35" value="HRNet" style="ellipse;whiteSpace=wrap;html=1;aspect=fixed;fontFamily=Verdana;fontSize=21;" vertex="1" parent="1">
          <mxGeometry x="620" y="585" width="110" height="110" as="geometry" />
        </mxCell>
        <mxCell id="DC5LUboHaYD9eqo_H9xx-36" value="SETR" style="ellipse;whiteSpace=wrap;html=1;aspect=fixed;fontFamily=Verdana;fontSize=27;" vertex="1" parent="1">
          <mxGeometry x="560" y="810" width="120" height="120" as="geometry" />
        </mxCell>
        <mxCell id="DC5LUboHaYD9eqo_H9xx-37" value="DETR" style="ellipse;whiteSpace=wrap;html=1;aspect=fixed;fontFamily=Verdana;fontSize=21;" vertex="1" parent="1">
          <mxGeometry x="-70" y="585" width="110" height="110" as="geometry" />
        </mxCell>
        <mxCell id="DC5LUboHaYD9eqo_H9xx-38" value="RegNet" style="ellipse;whiteSpace=wrap;html=1;aspect=fixed;fontFamily=Verdana;fontSize=23;" vertex="1" parent="1">
          <mxGeometry x="469" y="530" width="110" height="110" as="geometry" />
        </mxCell>
        <mxCell id="DC5LUboHaYD9eqo_H9xx-39" value="MobileNet" style="ellipse;whiteSpace=wrap;html=1;aspect=fixed;fontFamily=Verdana;fontSize=21;" vertex="1" parent="1">
          <mxGeometry x="460" y="900" width="110" height="110" as="geometry" />
        </mxCell>
        <mxCell id="DC5LUboHaYD9eqo_H9xx-42" value="SwinT" style="ellipse;whiteSpace=wrap;html=1;aspect=fixed;fontFamily=Verdana;fontSize=25;" vertex="1" parent="1">
          <mxGeometry x="-30" y="870" width="110" height="110" as="geometry" />
        </mxCell>
        <mxCell id="DC5LUboHaYD9eqo_H9xx-44" value="" style="shape=datastore;whiteSpace=wrap;html=1;fontFamily=Verdana;fontSize=25;" vertex="1" parent="1">
          <mxGeometry x="-877" y="260" width="110" height="150" as="geometry" />
        </mxCell>
        <mxCell id="DC5LUboHaYD9eqo_H9xx-45" value="" style="shape=datastore;whiteSpace=wrap;html=1;fontFamily=Verdana;fontSize=25;" vertex="1" parent="1">
          <mxGeometry x="-1030" y="260" width="110" height="150" as="geometry" />
        </mxCell>
        <mxCell id="DC5LUboHaYD9eqo_H9xx-47" value="" style="shape=datastore;whiteSpace=wrap;html=1;fontFamily=Verdana;fontSize=25;" vertex="1" parent="1">
          <mxGeometry x="-834" y="345" width="110" height="150" as="geometry" />
        </mxCell>
        <mxCell id="DC5LUboHaYD9eqo_H9xx-48" value="" style="shape=datastore;whiteSpace=wrap;html=1;fontFamily=Verdana;fontSize=25;" vertex="1" parent="1">
          <mxGeometry x="-987" y="345" width="110" height="150" as="geometry" />
        </mxCell>
        <mxCell id="DC5LUboHaYD9eqo_H9xx-49" value="" style="shape=cylinder3;whiteSpace=wrap;html=1;boundedLbl=1;backgroundOutline=1;size=15;fontFamily=Verdana;fontSize=25;" vertex="1" parent="1">
          <mxGeometry x="-470" y="235" width="170" height="180" as="geometry" />
        </mxCell>
        <mxCell id="DC5LUboHaYD9eqo_H9xx-50" value="" style="shape=cylinder3;whiteSpace=wrap;html=1;boundedLbl=1;backgroundOutline=1;size=15;fontFamily=Verdana;fontSize=25;" vertex="1" parent="1">
          <mxGeometry x="-410" y="275" width="170" height="180" as="geometry" />
        </mxCell>
        <mxCell id="DC5LUboHaYD9eqo_H9xx-51" value="" style="shape=cylinder3;whiteSpace=wrap;html=1;boundedLbl=1;backgroundOutline=1;size=15;fontFamily=Verdana;fontSize=25;" vertex="1" parent="1">
          <mxGeometry x="-340" y="340" width="170" height="180" as="geometry" />
        </mxCell>
        <mxCell id="DC5LUboHaYD9eqo_H9xx-52" value="" style="rounded=0;whiteSpace=wrap;html=1;fontFamily=Verdana;fontSize=16;" vertex="1" parent="1">
          <mxGeometry x="-774" y="660" width="474" height="200" as="geometry" />
        </mxCell>
        <mxCell id="DC5LUboHaYD9eqo_H9xx-53" value="" style="shape=flexArrow;endArrow=classic;html=1;rounded=0;fontFamily=Verdana;fontSize=25;entryX=0.573;entryY=1;entryDx=0;entryDy=0;entryPerimeter=0;exitX=0.414;exitY=0.005;exitDx=0;exitDy=0;exitPerimeter=0;" edge="1" parent="1" source="DC5LUboHaYD9eqo_H9xx-52" target="DC5LUboHaYD9eqo_H9xx-47">
          <mxGeometry width="50" height="50" relative="1" as="geometry">
            <mxPoint x="-640" y="610" as="sourcePoint" />
            <mxPoint x="-590" y="560" as="targetPoint" />
          </mxGeometry>
        </mxCell>
        <mxCell id="DC5LUboHaYD9eqo_H9xx-54" value="" style="shape=image;verticalLabelPosition=bottom;labelBackgroundColor=default;verticalAlign=top;aspect=fixed;imageAspect=0;image=data:image/png,iVBORw0KGgoAAAANSUhEUgAAAMgAAADICAYAAACtWK6eAAAgAElEQVR4Xu19eZQcZbn+81bPhCQEMl09YfshkExXTyIiiGCAIIJEBVG8gBcVBAWEpKsTBGRVj+b+BNlcIJmuTlDByxIQrngBWWQRkEVCBEUMyXT1AIJEEqarJwZCkpmu956aSWJmurqW7qrqreqcnPzR7/59z1TVV+9CCK8wAmEEykaAwtiEEQgjUD4CIUDC3RFGwCICIUBqtT3u5Mjk/pd3FiI77gR9085UbN9JZ+ww1hwe3/73dWfv81qtzGx1vSFAAtgBnYve2ENv23Q4mPZj4v2IsR+AaU5VM7CJgFUw/hFW6kN4cmC+9IRT/pCu8giEAKk8dpacsZ7sTI7QMWAcC2Cm92r4XUB4kln/gwB+PJ/qXu69jlBiCBCP94CYUU+GjjNAOMZj0ZbiGLgX4F8VOqVf4WQqBqm7mXWFAPFodUVF/QZAXwd4lkciKxPDvAoC3aHFNl+Jk/fdXJmQkGtrBEKAVLkXYkt6p7Mu/ACML1Ypymv2ZaTjyvw86R6vBbeSvBAgVay2mFHPBOMHAPaoQoy/rMxLuC3yw8Kcrjf8VdSc0kOAVLiuYkb9PhgLKmQPmm2lADqtX46/ELTiRtcXAqSCFWwwcIx4yDykR9qOHpg77Q8VuNyyLCFAXC69mM7eDaITXLLVDTmDP1eQE/fXjUF1bkgIEBcLFFPUexg43gVLfZISFmhJ6b/q07j6sioEiMP1EJXstQBd6JC87smI+Yx8KvHLuje0xgaGAHGwALGMehozbnZA2lAkehFHhSkr1ksWAsRmS3fc9FqHsHHoj2BMb6jd78zYt3QaOnwgOeN1Z+StRxUCxGbNYxn1SmZc2sRb43eaLAWaFtNIsQwBYrFaoqIeAuCPjbSgldjKjFQhJSmV8DY7TwgQkxXuXPL67ro+eA4Y59T1V3KvdifRmvHCwLTVcw7a4JXIZpETAmT7lVyo7iC249KWAcb2vhNdqCXjP26Wje2VHyFAtkRyyuI+qaizAvBsr4LbaHIG9aHO9fNm5BvNbj/tDQECQOzJfgoC/QLAB/wMdv3Lpkc1Of6p+rczOAtbHiCdyqvdOopPA+gMLux1rel50oVv5+d1PVbXVgZkXMsDREyrvwDhzIDi3TBqGPTZghx/sGEM9snQlgZIh6IeLwBhQZH55lpLOh+fn5dY5tPeawixLQ0QUVGNR6valsjW8TZh4IWCLB1Uxyb6blrLAkTsUQ+FgGd9j3A9KWBeDSJX1Y8MmlOQ4zfUkxtB2tK6AMmo54PxkyCDXVNdjJ+SQHlmvtyNHa1+F2ldgFRc+ESXA3wZgIibjVZLWgafWpATSycrf49GsPkpAPu6sYcF4bjC3K4H3PA0C23rAkRR1wOY5GYhmdFTSEnzY+nsiUz0aze8taA1/vqD9fMKqW7jXWv4iilqioEeN/Yw89xCKrHEDU+z0LYkQMR07jAQP+NqEYlu15LxU7byRBX1CgK+7UpGQMTDwADdUO7dQVRyT7vp38XMVxRSie8GZH5dqWlNgLjtSMK8uthGR6ybI/Vtv3pRJfcbAv9HHa3oMgbdaPdSLaZzXwLxHY7tZr5dSyW2/XFwzNcEhC0KkNwNYD7b6foxCXIh2ZUxo7frcKLJEonGgYCOC0DY06lOF3TLQHiQivyQm28WoqI+BOAzzvTw05qc+Lgz2uaialWA3A/mzzpaSqIHtGT8OCvaLXUjxjtJ+SNUwssMLAXrGkGYDcahFQJGJcLzrPNyYjznBhTb+xBL577D5PBEi/CylpQ+7CheTUbUmgBR1L8A2N/RWrJ+jpbq/pkdbXRJ32Qq6j8FcIYdLYBnmXAfFXEfRXCgzpgBxk5EvBOAnQCaRMAmgN4C8BYb/zO91TYOL609e9qasfJj6d6DIURmgnmmDpokELL5ZPwSKzuiSu/HCYLTHllvaLK0twO/mo6kVQHyjsPkxP6JG9/Z6x8XHPa+05WPKrlzAD6HgI864mEeAuFFInoBzCtBNMAQNnBx6H1mYQNFaAKRPpHZ+J8mQNcnskATiDEFwCEAzQTY7Mj5Lk2WTra886XVNx3exdZpstThyJ8mI2pVgLCjdST6mZaMG1WFri/XQHGtwYaBsUZLSbtZAiSTWwrmrzhRbbxLOaFrNpqWdFpUVEcAIZ0PqfQZf+tGiWbUUwUdxzLxsQCJgW0gBydPjtsZEa3RknFLsAXmV8CKQoCUCTgBf87L0oFercfOP39TjAxuPNYACwiHMNDllezt5KwFaDmIlzvpnLhTz8pYu9DWb2tH+JJuG6KmInB0B/G5PaeYzn2AiT4sYGh/hvBhEHWB9d0BMv5SO01jMd5ZljH4eb2IZevmSS+6XahoWl1LNPw+Y3G1bqVheAcpty18BojVdpy0UJ3S3lbcnXWhI0KR93V988ai0P5+W5E3DgpD7098f/PGNe99+H0sIN0tIMbSRzPqC8SwvFMSsDQvS6dWq6sR+UOA1CFAgtxIUUW9h+wachN+qiWlC4K0q150tSRAooqqEhC3eay4VpPjF9fLQvllRzStpokgW8lnwmWFpHSVXzbUs9yWBIioqEbqtjGeufxF9EstGXfy0a+e19fWtmhGvZQYV1oTCmdqctdNtsKakKAlARJVsgsJNN9yPZkf0FIJyxSTZtgPUUX9KgG3WN5BWnjoTksCJKbk5jN4ofUG5+WanPhYM4DAyoeOReqRQgSPW9EIutDdP68r2+yxMPOvJQESVXLHEtimQo5e1+T41GbfFPbFX1TU5Hhbs8eh/FlNC3puHKOOa8NaG9ff02TJVcVhI4ZSVNRvALBKxnxOk6VDG9E3L2xuyTuIETgnH8ja39swac1F+7/nRaDrVUY0k7uYmK8uZx+DFxXkxLn1ar/fdrUuQByc/+s0NLXZpy/F0tmrmajscTYRTs8nJcuXeL83aS3lty5AHBxvEgsfy6e6ltdygfzWLSqq8XhlPGaZXlTUZ+Tnd6/y2456ld9yABEXqx/UB7GLsSB2pzdM+GohKd1Wr4vnhV2ikvs1wCeWk2UM+tz6WysO/GwpgAxPjioOPuK0LxSDFhXkeFM/f0cV9XECjnQItr9osvQRh7RNQdZSALFrsGCyoss0WTLmFDbtJSrZvKs6lRomcdZiEVoLIIpq1Iyf5zTQDGwqrL1tIhYsqDpr1qnOIOlimd7/xyz8w6XO6zRZOt8lT8OStxZAMrmbwPx1V6ul4zBtntSUk26dfTAdE60WyVHb6nVLASSWzt7LRJ93BRDm87RU4npXPA1CbPcNxMwNYr4vn0oc3yAuVm1mSwFETGfvB5GzflhbQ8v8Sy2VaMqs3lhavZUJ7gqhWiSJsyXvIKKSuwbgi9z8WfG6Nt2Nbr9pRSX3EsAuG8JRS9TJtCRAjFY8BHbbpZzbiXZbk4zb5W75vZ89l++oNn+M1lYbqNNSj1gxJTubQcZ3EFcXQ/9sQe5uqoGWlc5nJPCn8nLiUVcBbGDilgKIsU6iy6Pe4bUlvl5LJhwfDzfCfqhoum+LfQMZXvpGWEyvbRQV9c8ADnAsl7FKS0kzHNM3AKGo5F4DeB8Xpv5ak6UvuqBvCtKWBMiWO4mrCVOk67Pz87ofa4ZVj2ZWzSKObJs6ZesT0WNaMj7blq4JCVoWIFtAYkyZOszZuvK1mpxoii4nblJuiHFbPiV91VmMmo+qpQGyBSR3AvhP+6Xlv2pywtnIBHthNaVwmqDIwM0FWfpaTY2tsfKWB8gwSEZGshld3C1niDP0IwpytzEltmEvI90fOlbYOLAahBuc9Pdt2EA4NDwEyJZA7XPTa+P/tWloGuu4hIDTzeLHxFcUko09zNLq8cq4Y5CAq3feoe3V18+YutHhHmpqshAgY5Z353Qu3kasmq46409aSjq4kXeEqKh/K1cPM8Qk/SsVzzWyf17bHgLEJKKiopZ9L/FiZojXi+hUnqioxruW4ZvZZTuRyqmeZqILAWIGEMs56nyDJifmNOImsAI+mGZpqfizjeiXnzaHACkT3Zii3sfA58x+FkAH9cvxF/xcGK9lW72cE/DbvCy5KwPw2sA6lRcCpBxAMrkTmPlu858b7y5i9XJORCfmk/Hf1OkeralZIUAswi8qatkPiY10F+noeXVvQSg+D4x0cxlzPavJ0qya7sI6Vh4CxBogFm05G+cuEsvkrmbmclkAZ2uy9PM63qM1NS0EiE34xYz6JBhHNOq7SCydncFExt2jtM8w4Q9aUvpETXdgnSsPAWIHEMuj0fq/i0TT6iIizCvj5smaLN1V53u0puaFAHEQ/pii3suA6SlPPb+LdC5RD9SLMFqnCmPdJOC+vCy1TPMFB8tsShICxEHkxLT6aRB+Z0rKeEhLSdbj3Bzo8INETKsPgnBMGbs/o6Wkh/3Q20wyQ4A4XM2oot5MwGlm5Mx8RSFVXzla0XT2ciL6jqm9wC0FWTLNN3MYjpYhCwHicKljmd6PMQvLypGTrp+Yn9ddF98SYj29J7AglPmGAxDpM/PJbuPFPbxsIhACxMUWERXVqEs32peaP7VsFvYunNf1hguRnpNGr+vbi8bpf7cQfL4mS9d5rrhJBYYAcbmwopJdApBRO2J25TVZ6nQp0lNyUVH7AcTKQLhh88g8DZILYSFAXATLIN1jyeqJG4vvPgTQx8tswqc1OVHmN5fKXJKLSvYpgA4vY9dT4yOTjlk9Z48NLsW2NHkIkAqWv1PJfbQI/SEClbtbrNBk6UMViK6YxarOg8H9EQjHNFqCZcXB8JAxBEiFwYwq6lcJsJrdt6L9vQ0z/R4Cuuu1L+04uONE4/Bg33KuMHBaQZZurdDVlmYLAVLF8kcV9QoCvm0hYoWA4kn98vTeKtSUZe1UVnXriPzaBhw/LMiS6XGvHzY1m8wQIFWuqKio/wPgJCuQ6ELk1IG5016qUtUo9o7Fr+4v6EVjfmLZOweAlmz25mWcQ4B4EE1RyT0PsFWtep7B3y3IicUeqENUyc4l0OXlT6sMLbRck+Mf80JfK8sIAeLR6ouZ3Ntg3tVaHP03dF5S6cQqsUc9FALNAdi6VxXRGi0Z380j11paTAgQD5ffxUDMu1jnmwv9gw9jwb6bLU1YsGJctLP90ySQkRripMGdpsmJMt9BPHS2RUSFAPF4oV1ObRpg0BMCisuZ2t5mxprhhyPCrsRDu+mIHExgY0RzhxMzW71NqJMYuaUJAeI2Yg7oo2n1SiJc6oDUMxJmXFVISZd5JjAUNByBECA+bYSokj2FiC4FYz+fVIyIJbzMzFcV5MRSX/W0qPAQID4ufHRJ32RhSL+UfbqbEOMqvU24qjCna52PbrS06BAgASx/dFHffoKgn8KEUwDsVaXKN4ixVNeFpYX5XS9XKStkt4lACJAAt4hxR4GunyIwjmXQbIAnOFNP7xP4UZ3wIARhaXjHcBY1L6hCgHgRxQpkGN3k123UZ0MvHgJQlMBR4/8RUVxgUMH4H0LkucnjhUfDbusVBNkDlhAgHgQxFNG8EQgB0rxrG3rmQQRCgHgQxFBE80YgBEjzrm3omQcRCAHiMohT0msn6ZF1R+fnSve4ZK0peWyx+oUdaN0jq+ccFJbculiJECBOgnUnR8R3XjsaNDSbmY4mwoAmS0c7Ya0XGlHJPgKmDiY8zEU8MjBfeqJebKtnO0KAWKxOR0/2CEHgo4HIJwEe1Qxh5wltExrp6FVUVB7j6jIQHqQiP5Sflyjb76ueN28QtoUAGRPlzsV9BxV1/WgCPomRf21mC8EQTi3IXQ2R/xRVeo8lCA9YbKi/gPEYQI9q73Q9igU0FMTmawQdIUC2WyUxk7sOzGcA2Nl+8egOTY5/xZ6u9hRRRe0hIOXQkr8AeIKgP5mXu//XIU/TkoUA2bK0U9Kv7VakoUdtary33whva7K0eyPsDFFR/wzgAFe2Mn6mpaRyDfJciWpk4pYBiPHopBeLs0A0S5Olk8cumoM2PqXrzHSsloo/VM8bYMriPqmo61m3NjLwREGWjiqJ06JVs6itfbeILjzzTmrq227lNhp90wIkqqz6MNB+GKDPImYDGFOHF4dwlpaUbhy7UDElexuDjGxbxxcRrsonvStSivVkZxrKvXxpFjPqmWD8wrFT/yZcr3X+OYqTTy5uzxtdtHI/irT9FeA8g54ipmcQ4We0udIfK9BR9yxNBRAxvfIwoO1EEIx5HR80iz6Rvmc+2f3W9r91Kq92F1F8iYAd3K0YP6/JieFNXe0VU3L/weDrRzBM38zLcU+e/0UldzvAX67EPkEXuvvndY26+2wZCPq6iTwV4KcBerCZplY1PEA6l7yyOxfbT2TgxC2nTlZ7YZkmS4eUPDZkshcT09WVbCIIOKzav57RTF+SWFe2188kyIVkV6Yim7YwjWxmfaXztPox2gjHaElp1OCgycrfoxFs1mzsWgHCXcY/ba70SjU+1Jq3YQESXdz3WWMmBxgngZw1NQBhgZaU/mts0MW0+iwIh1ayGEx8RSFZ+fAcy0E3VQ7miWVy5zKP3JUqvEpnGBofTftzbo6BjRmIdzXqXaXhABLN9H1OYP2ccjMDrTYC6XzI2Of7nXpWxtqF9jUARyrZRAT8OS9LB7rlNXrqDu048QbGcJVh2YuApW3vbTinkh6/UUX9PQElL9qObWV8Q0tJJe8vJh8dnYh8RgeuGZCle50Q1wtNwwCk8xerdtI3R24E44sVBu9dTZZ2Mrl7lJ8/6FCRDhw5IEtPOiRHbFHvdI4INwEoedwrI+M5Kupn5Od3r3Ksw2YiliM5hAu0pFQyMKhCgIyoZNw4cdP4ef+44APvO7KhxkQNAZCOnlf2FoRxDwOcqCJez2iyVDI7I6aolzHwwyrkGqt+rSYnLnYjw+0m02TJ1Vo5aKxtb265R9LStBV7WaMo+Glhh/Ff6j9rr9UuGQMndxX0wK0zOqYtUo8UIni8Wt3MUAopqeRrspjO3g+iz1Yp3/U8EKt3j7G2VDIk1GpeiGNfvX3EKlFLgjA7P7frMcf21ICwrgHiFTiG40p0jpaM/6zkEUtR/wWg5NHL9Vro/GltXuIRN3xO7yKu7x6Zvs8R6/e5scWU1uQUa+Sdrc0Y8+bRJZypyV3G42ZdXnULkMmLVk0VIpGHCYh7ETmiyMx8ctqoya4d6dcOEGjISMPw4rpOk6Xz3QgS0+oNIJxtyVNByoeoqD8HcJYbW0xpBew79phWVFTjvcnTj4I68IV6fXmvW4DEFPU2uxMeNxtAG8J4nCtt2p5H7FFPhoBfuZFjQatqsuTqHSmqZI8j0G+t9LMgHFeY22WViTuKfddMbpdB5hUAqh8mOoTJ2rmScYfddsXSvaczCf/tUcy2ijF9P/RYR0Xi6hIgMSU7n0ELK/LIjImxSktJM8b+JGZy3wLzj7zSw4JwSmFu1+1O5UUz6qXEuNL6DkIXaam4YxvtRlU7tQ2AaTKmqOR+APB3XchxRMrMlxRSiWscEQdIVHcA2fPONyds6H//FYD28TAORvpDyYu4mM5eD6JzvdJDwG/zsvR5p/LETHYpmOxS5m/SZOlMxzIV1Sh+8mJwzkOaLBkpO6MuMa3+CoSSZE+n9pWlY/w9gs0feie177tVy/JQQN0BJJZRT2PGzR76CAZuLcjSaaWLnb0bRCd4qQtMs7RU/FknMkVFNVqH2k3DNU2PMZO/JZ/rN05029Iw/0hLJS4aSxdT1BcZ+IgtfyUEZRJJKxHlFU/dASSqqPcQcLxXDg7LIbpeS8bPKwFIJrcczAd5qYsJPYWkNN9W5oIFgrjLqaMyZcvwrNdkyUEBFyAq6p3OhuzYWgcmyIWkVJILJqaz74JoR3sJFVH8TpOlYyri9ImprgDSkc4eIBB5dar075ARf09LJn5QAhBFNQbW7OJtbFkTiuP3659v/RGsY3Hv/oIuGNV79hfTXloq/qYVYUdG/YjAeNFeWAnFewC/AhJWAPzvLF2dlo2tddn15rd3HHx3va+PQEzFwwvJ6c9U4IcvLHUFEP9eAJEqpKRR2bJYwIK4S87JX3D3gWe+SEslLF+sO3p6TxMEwdmjpMn3iFKwZ68BqOSRqJzxRkEUGHcNFnHXu+dK7zhxsgoQOhE/QsO0UEvFv+mcwV/K+gGIsWGn5Iw06emeu8z0ZS0VH3WcOyW9YlKRxq33XNfwGuPFQlL6qJVsUXGxoRkXaKnSnKit8odT0GnzX8HY084fI7lSJ7qmkIzfYUdr9vuUdC4+RPq5BLJ/jKxEAejtwUhxv/Vzuj38GFmRIcNMdQMQj79JjIoIQfhUXu4y6s23XZMWqlPGtWFt5aGz4WT8p5aSjBnqppeoqMa3jZJTojLkP9dkqewHxehiVSYdaVtfCAvGC+uu9aJ5nJhRPwOGkchYcnxua4dd6Njkjl+t0Ar56wcg6ewvQOT4ONONv3oRR41tlDaSANluVhnnRrQFLd2tyfGTLADyBoAPOFT2rCZLsyxkPQ2g7O8GH4PmFOT4DQ71OSLbkkT6E4CNYjUPL75DkxN2x98e6isvqp4AshJE3j9eATADSGxJ73QuCiv9jDKx/rF8qnv5WB0V5DMZnRy3zA4ZLS26WP086bCssXCby+U2Jl6enhm6CejLy5InKUZufRlLXxcAcXWiU4HHZgCZ3KMeGBHwQgXinLMQbtSSUklOVGd61VE6RX7vXBAgRNr36J+zzz/H8gy3FB2eVmV+OclzGklPoeMA/bgtdfkDOtEAMQYAvl+TpefsbPUaJDDJA7OzwY/f6wIg0YyaJMboUyYPvTUDSDSTM7qdGI8mvl5mxVQxJTefwa5SacxSw2Pp7NeZqHwmLONGLVUK0K0Oi+ncl0D8Nft3IVoO0NJ24qVrknHT97aOzMp9BG5/HGBPMiAI+tfzcrfXOV+u17ouACIqqnGi8iXX1jtkMH3E6snOZIFs/zI6VGFFZtRjj0rNEJXsEoBcNWUj0Ll5Ob5om6Ilf2oX9cnLwdi/jPJ+AZHD++VpvWa/i4vVs6DDyPp1fjGvIoG/lk92j8qK3irAFrDONYHAi/NyIumCxRfSegGI0SXD9BnbC6/NAGIcVxaJVS/k28lgnT9fmJfYlrUrKqrxIewwO75RvzMv0VKJudv++ivqBQB+XE6GVfKfqPSdB+glpbTO7KF/kk6n5eeZFzrFFPXeSvoFmOh2XYTmzH53VDUHSCzddzCTbvoXyZ0r5anNALLzz98U2zZvzHulw0rO2C6FoqIOAJjsTjc/pcmJIwyeXa57ddfB9uLLRJhSRsZKTZZM+4KJGfX7YCxwp7uEeiOxcGo+1XX32F+MphqeFGsZXcM3R3Zbe940I9uhZlftAaL0fpshXOFnBBg4rSBLt47V4bSizwvbtnaDr+LOlddkabjGw+4jY7kS3c4lr++uFwf/BGCPqn1i/EFLSZ8wk2N3cOBUNxGdmE/GvUm+dKp0DF3NARJV1McJOLJC+x2xMeGyQlK6qhQg2TxAoiMh1RMNPzJUk3G7mWjXcYPciTYYBVFlL51w4EBSKslp8+jusU2v2QdY48eYoioMePD+QD/S5Ljj9Jnql6hUQs0BIio5Yx54hx/ObZVZrmFDVFFVr0p6Hdp/PoEnMagkcdIJv044ihhnEfDVsvTMD2ipxHFjf/f07vFv4SUHEMMAqb5h3YgGwiNaUvq0k9j4RVNTgBh155FI5FW/nNsGEODegix9ofQOohqnWJ701nXiAzPeIYLx/aOiEzsWkLJNKSnXicSbd48SN4vgrnVyYtQaethsY60mS7s6ia1fNDUFSCyTO4GZS170vHa2XPKgqGT/B6Cy6SBe27FF3t8cFEmZqyZ+DEwWsxHpn/qEyAcHzphqHAL8+zKOhIuTjaZz07z2yewARFysfhC69WOgUzvKfSB1yl8tXU0BIiqq0Sf3e9U6Ycdv/OUupKSSuo9oJnc5MX/Hjr9RfmcgXZCleSV3yrT6xeFm0j5cZgDxNBG0xjNYagqQmKLew15XD5bZBOMj63Ycm8XqR3mvD3vQsUii4tH55PSSFJaoot5i+d7iWEMpoRlADCqvTggZuLQgS5V13q/Cr62sNQWIqKhuMlqrctfsZCfmRf/aqqzykpme1eR4SUZv56I39tAjm4zHq+qb45mYawaQnZb0drYXBUdFWLYRILpdS8ZdDTaylemCoGYAqSCj1YVbpaRM9JWxRULRJX2TqaiPfl6vSksNmYku1JLxki/rtchzMwYS6Sg6brRtE7VXNFnat1aRrRlAYj19R7Ogjypi8jUI5RoxZ3KrwdwQwzgt4rOxWCx+cN386a+VvH8oqjFD8TN+xVYQhIP753YZHx+3XdHMqlnEEc8SQbXIunGYc9CgXz5Yya0ZQLxu2mYfPPMinCA+VNrbVh0FEW7LJ6WSbyMdi1/dX9CLzhpDVGpCOz6gnS39YxRAHNSouFFnBkI3/NXQ1g4gimo0kv5GNca74S036Mbrr8tubPKKllg4ySwvSlRU44SwZKKWV3oNOdqMeDuOolETp7zM6jV0lEsV8tKPcrJqB5C0+iQIw8l3wVy0QZPjJf2cYpncJ5m5rlvwW8eHezU5YVqJGc2oLxDD9fQr5+vBeU1OlPQAFm0yjZ3L30b5/zVZ+n4FfFWz1A4gSm41EOyzPw3pM/Pnjq5lGJ5ctSkyqkFz1VENUAARXZNPxi8ZqzKm9M1m6K7GMVRgtmlKejSTvZyYvPu+VMOTrJoAZEp67aQirfOl5Y7lIjN/T0uVNpBr5PeQco3Wokp2oX+tebZEmegxLRkvKff1LllxRA8DLxRkydMOmE7/GNQEIIHUg5tEgIHHC7L0ydK/tupVDJT8FXYaxBrSmY8NuPPOiNh/QBYgz1NLtveVwEvzcuLUsf6LSu4OgCvKNysTy39psuSyfsabVakJQLbUQlfUuKxKtzcL64ud/ZdMH3X3EjN9J4H1sj2sqtTpG3u5qsFoWv08kXWnE4+M+okmS98qBYh1I4lKdLe1R3Zbe3bwxfJF72oAAAhfSURBVFM1AUhMyX2XwRWlfFcS3FF/9UyKcIzOhAJv7rWo0KtWrS/8AiLTzWrOxXR2MYjm+KJ0O6EMurggx68dq8ePwwGGfkRB7n7Kb5/Gyq8JQKKKejMBJeMIAnGe8WMtJV1Y+ldPvRHAGYHY4IkSfl6TEyWp+nv+5NkJG8ZPMRo1OG1KV7E1RDg9n5RuMXnEes2r7ibbZNdoNEJNACIqqjHjzumM8IoXsAyj6byNGj72VeQfgxYV5HjJ8B8xkz0JTME8LjI+o6Wkh03+2KwD4Ghkg1PniXBVPild5pTeK7paAcRoTBzzygm3ckjnQ/LzEsYkpm3XSMXd0B8B3tutvJrQmzTkNuwQleyNAAVyJ6SiPiM/v3t0ztWCFePEXcaNmgXpSXyY79ZSiaBrd4JvXl2zI95RLyJYoCWlki/Mnk2H9WRHWAsZjOhTxnZAFxeqOyOCLAiBVOHtPKFtwutnTN24vaXiQnVPtMFylkkl4XHSMb8SuXY8gd9Bpizuk4q6nrUzzOffTdvixJTerzEiFwAsAZjgsw3ViH9Jk6UDxgqIprNfIaKl1Qh2wWs65NO3I3zCGi0p7ebCPk9IAwdIx+LsEYJOT3pifRVCzB6ztoozTrXaMTitSPoJxMNzMDx9nq7C7GFWBm4uyJLRMnTUFVPUW9iqoUO1ikfzP6fJ0qFjRYrp3DEgftBbVSPSapHVGzhA6uZlmHmhlkrYTjKKpbMzQDTfmzY23mwbBr5dkKWS8dFiWu0FwdWs9sotojs0OV4yoiCWzp3OxL701NVpaOpAcoaPIytKoxE8QBTVGKZZYdvLypdzLCcxn5RPJRw3jBDT6g0glB1i451l9pIIdEJejv/v9pSeVvHZm4Byp0piOnchiEu+jTgQaUvCRIcXkvFA5xcGDpBYOns1E11sGw1/Ca7TZOl8VypGOoMYxUclqSqu5HhATJG2Gfk5U0edHnnYaseRhQxOFuTE4pJHrAoacztSaBARvqQlJWOSb2BX4ACp6UfCLWEVUJzeL0837XpuFXkxvfIwUFugf8HM7DEbiFNFS9PKNluZbiOikn0eoIMrE2rL9S1Nln5iS+UhQeAA8apva+UxoKc0OV5xHYqYVgsg+NoJ0s43AXRQvxwfNfzHz6GkZvaYfgMZ6WZijIn2a466ae6XXbyq+b0GAMm9DPCHqjG6Kt4ytelOZYqKahRX1fQxq9y8wZiiphjocepLNXRm30A6ldxHdfCo+vRqdJTy0q80Of5lb2VaS6sBQNSafkVHtQDxqYWnq0W3OIGLKrlzAD6HAMsx1K70jSEeO85h689el9qa2Gie3l+NMza8wQLkzhXjxH4f0hDcBKhagNTBHQSMR7SUdVNnceS00ChT9fxxsGwWr+9FWvS6JsenulnuamkDBUhHz6t7C0Ix0HNskwD9TZOl/SoNXD28gwzbTviplpSMKVNlr+H8Mn3oFjBb9PN1HwmzdyBDSgDd8gc1WRrn3uLKOQIFiKioRgavkclb04sibYfk50wdlazoxKB6OcXazlbbU51YWr2VCSVVf078NaNh8KKCnCjJIo4quWMJ/EClcp3yBT11KlCAxDK9JzALjj/OOQ2aWzoGbi3Ikut6FFHJ3g5QoC+Jtr6VyerdyudpWyPWL9RS3aZzEQOpgQdQ1PHRdfOkF23j4hFBoACJplWZCGmPbK9KDJP+lUKy23HZr5hWzwK5nApblYWumB82xkGPba1a8cdD4scY9GtAeJOHdOPYFmjXCwNzu18qZ1UAj1fDqlnA8YW50n2uolMFcaAAEZXsDwD6bhX2esvKdJGWiv/ITqinf4XtlFX3+xsM6gHTPwi68bHuuEpys8q9Y5QzTVSy1wJUUqVZnSvm3EyQC0kp44dsM5kBAyTYbopOgkjAfToJNxSSXdvGNBt8eyxZPXFTccOnGXw5gJo1T3big8c0phWX5XQEPUKCia8oJBOB/ZENGCC53wJcMj/P4wWuSBwBfcz8VwhkPEbMAtMsgCdWJKyxmd7SZGlPJy4YtR+CgGcJ2MEJvSc0RL/UkvFAKiYNewMFiB/dLjwJeihkVASI+Yx8KvFLq7CIGfV86LgABEdg8i7E/KgmJz7lnTxrSYECRKxBu9GgAtlsegj4DgO/h4B/oUjr9YmR9QM77rM+9o56GpPwfc+7ljgPoGk1qHN2d5QBA0Rld+aF1GEESiIQaJfFwADi6WDHcNe0dATa39swac1F+78XRBACA4iXo4GDCEyoo34joFPb1IHk1EBSlgIDSIeifkIAnqjfsIeWNUoEiPSZ+eToMRZ+2R4YQEQfZ3X7FZxQbn1GgCF8riB33R+EdYEBxO9pq0EEK9RRLxHgMzU5cVMQ1gQGkCDm5QURsFBH7SPARJcUkvFrgrAkMIBE0+oiIswLwqlQR5NHoEyHfj+8DgwgoqIambNeTh3yIx6hzAaIAAO3FGTp9CBMDRIgNW92EERAQx2BROAhTZaODUJTcABJq38FoeJS1yCCEepojAgw48VCSvKtKcX2UQgOIIr6TwCBd+dujCUPrXQZgTc1WdrLJU9F5EECZBBAW0VWhkxhBLaLAAObCrI0PoigBAOQBY+3ibvsaQAkvMIIeBIBs/arnggeIyQQgIyMNxtc7YcDoczWjEA70a5rkvG1fnsfCEA6FvbuL7QJf/HbmVB+60SAifYrJON/89vjQAASU/pmM/RH/HYmlN86ESCio/PJ+O/99jgQgESV7CkEus1vZ0L5rRMBZj6lkErc7rfHgQBETPd9E6Rf57czofwWigDzeVoqcb3fHgcCEKOBmd+OhPJbLwID8yXf64sCAUjrLV3ocbNEIARIs6xk6IcvEQgB4ktYQ6HNEoH/A2ukbZtlULGBAAAAAElFTkSuQmCC;" vertex="1" parent="1">
          <mxGeometry x="-1030" y="940" width="100" height="100" as="geometry" />
        </mxCell>
        <mxCell id="DC5LUboHaYD9eqo_H9xx-55" value="" style="shape=flexArrow;endArrow=classic;html=1;rounded=0;fontFamily=Verdana;fontSize=25;entryX=0.235;entryY=0.972;entryDx=0;entryDy=0;entryPerimeter=0;" edge="1" parent="1" target="DC5LUboHaYD9eqo_H9xx-50">
          <mxGeometry width="50" height="50" relative="1" as="geometry">
            <mxPoint x="-570" y="660" as="sourcePoint" />
            <mxPoint x="-400" y="520" as="targetPoint" />
          </mxGeometry>
        </mxCell>
        <mxCell id="DC5LUboHaYD9eqo_H9xx-56" value="" style="shape=flexArrow;endArrow=classic;startArrow=classic;html=1;rounded=0;fontFamily=Verdana;fontSize=25;entryX=0;entryY=0;entryDx=0;entryDy=127.5;entryPerimeter=0;" edge="1" parent="1">
          <mxGeometry width="100" height="100" relative="1" as="geometry">
            <mxPoint x="-709" y="360" as="sourcePoint" />
            <mxPoint x="-479" y="362.5" as="targetPoint" />
            <Array as="points">
              <mxPoint x="-599" y="360" />
            </Array>
          </mxGeometry>
        </mxCell>
      </root>
    </mxGraphModel>
  </diagram>
</mxfile>
